<svg width="21" height="26" viewBox="0 0 21 26" fill="none" xmlns="http://www.w3.org/2000/svg">
<path d="M12.3935 19.8492L10.3475 17.7427L11.4949 22.0895L12.3935 19.8492Z" fill="white"/>
<path d="M8.2793 19.8683L9.17417 22.1775L10.3475 17.7427L8.2793 19.8683Z" fill="#DEDEE0"/>
<path d="M9.18527 16.9169L7.74084 15.4144V16.9016H7.78169C8.4306 17.3609 9.1842 17.6388 9.96875 17.7083L9.18527 16.9169Z" fill="#FFCAB3"/>
<path d="M7.74084 14.4472V15.4144L9.18527 16.9016L9.96875 17.7083C10.095 17.7083 10.2212 17.7274 10.3401 17.7274C10.4589 17.7274 10.4997 17.7274 10.5814 17.7274C11.4177 17.6843 12.226 17.4037 12.917 16.9169V14.4472H7.74084Z" fill="#F9B59D"/>
<path d="M12.7833 7.06093C11.777 7.06093 10.5851 7.967 9.97986 8.70104L10.3512 16.4887C13.0061 16.4619 15.208 13.09 15.5051 10.2341C15.5273 10.0047 15.5422 9.77915 15.5422 9.55741V8.38372C15.2674 7.64204 13.5445 7.06093 12.7833 7.06093Z" fill="#F9B59D"/>
<path d="M14.4654 4.38858C12.0297 6.13573 9.13129 7.06995 6.16275 7.06475C5.79143 7.06475 5.45353 7.06475 5.10449 7.01887C5.07646 7.23562 5.06158 7.45396 5.05994 7.67262V9.56123C5.06082 9.78742 5.07446 10.0134 5.10078 10.2379C5.41269 13.1091 7.62574 16.4925 10.2992 16.4925H10.3475V12.9523C10.5018 12.9415 10.6459 12.8691 10.7492 12.7506C10.8526 12.6321 10.9069 12.4768 10.9008 12.3177V8.83102C10.9008 8.83102 10.9713 8.73544 11.0938 8.60163C11.4429 8.21932 12.2078 7.48147 13.0544 7.48147C14.7773 7.48147 15.5422 8.38372 15.5422 8.38372V7.6688C15.5462 6.48275 15.1674 5.32894 14.4654 4.38858Z" fill="#FFCAB3"/>
<path d="M15.9729 3.14608C15.1556 1.93966 13.993 1.02596 12.6472 0.532415C11.3014 0.038873 9.8396 -0.00989613 8.46561 0.392911C7.09162 0.795717 5.874 1.63001 4.98258 2.77943C4.09116 3.92884 3.57039 5.33605 3.49292 6.80478C3.49292 6.93095 3.49292 7.06093 3.49292 7.18709V8.60164C3.49292 9.03327 3.65894 9.44734 3.95468 9.75327C4.25042 10.0592 4.6518 10.2321 5.07102 10.2341H5.10072C5.07441 10.0095 5.06077 9.7836 5.05988 9.55741V7.6688C5.05859 7.44648 5.07099 7.22429 5.09701 7.00358C5.44605 7.03035 5.7988 7.04946 6.15527 7.04946C9.1246 7.05225 12.0235 6.11828 14.4616 4.37329C15.1663 5.31267 15.5477 6.46657 15.5459 7.65351V9.54212C15.5459 9.76386 15.5459 9.98942 15.5088 10.2188H15.635C16.0542 10.2168 16.4556 10.0439 16.7513 9.73798C17.0471 9.43205 17.2131 9.01798 17.2131 8.58635V7.1718C17.2092 5.7309 16.7764 4.32585 15.9729 3.14608Z" fill="#2E313D"/>
<path d="M7.78168 16.9169H7.7594V18.4729L8.29781 19.8683L10.366 17.7427C9.44314 17.7439 8.54172 17.4559 7.78168 16.9169Z" fill="#F8F8F9"/>
<path d="M12.9431 18.4729V16.9169C12.1842 17.4554 11.2841 17.7434 10.3624 17.7427L12.4084 19.8492L12.9431 18.4729Z" fill="#DEDEE0"/>
<path d="M15.7427 16.9169H12.9319V18.4729L11.4949 22.0895L10.3475 17.7427L9.17414 22.1774L7.74086 18.4729L5.6095 20.6635L9.89821 25.0792H20.3211V21.6384C20.3221 21.0187 20.2044 20.4049 19.9747 19.8321C19.7451 19.2593 19.408 18.7388 18.9828 18.3002C18.5575 17.8617 18.0525 17.5138 17.4965 17.2764C16.9406 17.0391 16.3446 16.9169 15.7427 16.9169Z" fill="#B50D2D"/>
<path d="M7.74088 16.9169H6.22961L7.74088 18.4729V16.9169Z" fill="#ED1A3B"/>
<path d="M5.60949 20.6635L7.74085 18.4729L6.22959 16.9169H4.92998C3.71637 16.9179 2.5528 17.415 1.695 18.2989C0.837196 19.1828 0.355346 20.3812 0.355347 21.6307V25.0715H9.8982L5.60949 20.6635Z" fill="#ED1A3B"/>
<path d="M10.345 17.7384L9.1687 18.9495L10.345 20.1606L11.5213 18.9495L10.345 17.7384Z" fill="#585A64"/>
<path d="M9.84244 19.6466L9.17407 22.1775L10.3474 23.4047L11.4948 22.0895L10.8487 19.6466L10.2992 19.421L9.84244 19.6466Z" fill="#585A64"/>
</svg>
