<svg width="15" height="15" viewBox="0 0 15 15" fill="none" xmlns="http://www.w3.org/2000/svg">
<g clip-path="url(#clip0)">
<rect width="15" height="15" fill="#F5F5F5"/>
<path d="M12.8971 6.44604H13.966V13.8979C13.9822 14.0509 13.9642 14.2054 13.9133 14.3506C13.8625 14.4957 13.7801 14.6278 13.672 14.7374C13.5639 14.8469 13.4329 14.9312 13.2883 14.9842C13.1437 15.0372 12.9892 15.0575 12.8357 15.0437H1.13891C0.985862 15.0559 0.832002 15.0345 0.688137 14.981C0.544271 14.9274 0.413889 14.8431 0.306163 14.7339C0.198438 14.6247 0.11598 14.4933 0.0645808 14.3488C0.0131821 14.2044 -0.00591603 14.0505 0.00864383 13.8979C0.00864383 9.99707 0.00864383 6.10202 0.00864383 2.21281C-0.00266886 2.0659 0.0174073 1.91826 0.0675221 1.77967C0.117637 1.64107 0.196655 1.51467 0.299359 1.40884C0.402062 1.30301 0.526106 1.22016 0.663283 1.16576C0.80046 1.11136 0.947641 1.08665 1.0951 1.09328H8.40234H8.56881V2.08162H1.07757V13.8979H12.8971V6.44604Z" fill="#797273"/>
<path d="M7.85056 9.33233L5.65137 7.12825L10.9084 1.88043L13.0988 4.07578L7.85056 9.33233Z" fill="#797273"/>
<path d="M14.0017 3.27112L11.7236 0.979566C11.969 0.743415 12.223 0.463531 12.5209 0.227379C12.7233 0.0657402 12.9782 -0.0156167 13.237 -0.00108887C13.4957 0.013439 13.7399 0.122838 13.9228 0.306107C14.1857 0.551005 14.4397 0.804645 14.6851 1.06704C14.7847 1.16545 14.8638 1.2826 14.9177 1.41171C14.9717 1.54082 14.9995 1.67932 14.9995 1.81922C14.9995 1.95912 14.9717 2.09763 14.9177 2.22674C14.8638 2.35585 14.7847 2.473 14.6851 2.57141C14.4573 2.81631 14.2207 3.05246 14.0017 3.27112Z" fill="#797273"/>
<path d="M3.73242 11.2741L4.73125 7.97668L6.99177 10.277L3.73242 11.2741Z" fill="#797273"/>
</g>
<defs>
<clipPath id="clip0">
<rect width="15" height="15" fill="white"/>
</clipPath>
</defs>
</svg>
