<svg width="19" height="19" viewBox="0 0 19 19" fill="none" xmlns="http://www.w3.org/2000/svg">
<path d="M12.9773 11.2746C15.258 8.05399 14.4952 3.59439 11.2746 1.31419C8.05399 -0.966015 3.59439 -0.203769 1.31419 3.01739C-0.966015 6.238 -0.203769 10.6971 3.01739 12.9773C5.31611 14.6047 8.35529 14.73 10.7799 13.2982L16.048 18.5347C16.6169 19.1335 17.5633 19.1575 18.1621 18.5887C18.7608 18.0204 18.7848 17.074 18.2165 16.4752C18.1986 16.4561 18.1811 16.4387 18.1621 16.4207L12.9773 11.2746ZM7.14136 11.7628C4.59637 11.7633 2.53302 9.70162 2.53138 7.15662C2.53084 4.61162 4.59255 2.54827 7.13809 2.54718C9.67982 2.54609 11.7421 4.60454 11.747 7.14627C11.7513 9.69181 9.69072 11.7584 7.14463 11.7628C7.14354 11.7628 7.143 11.7628 7.14136 11.7628Z" fill="white"/>
</svg>
