<svg width="22" height="22" viewBox="0 0 22 22" fill="none" xmlns="http://www.w3.org/2000/svg">
<g clip-path="url(#clip0)">
<path d="M17.0373 4.0156C16.8079 4.0156 16.5784 4.10294 16.4038 4.27757C16.0545 4.62684 16.0545 5.19523 16.4038 5.5445C16.7531 5.89377 17.3215 5.89377 17.6707 5.5445C18.02 5.19523 18.02 4.62684 17.6707 4.27757C17.4961 4.10289 17.2667 4.0156 17.0373 4.0156Z" fill="#ED1A3B"/>
<path d="M20.1329 1.81524C18.9624 0.644638 17.406 0 15.7505 0C14.095 0 12.5387 0.644638 11.3681 1.81524C10.3661 2.81719 9.75227 4.08944 9.59285 5.49442C9.44456 6.80111 9.71896 8.13478 10.3666 9.26963L0.0517578 19.5845L2.36369 21.8965L3.57165 20.6885L4.88323 22L7.0443 19.839L5.73272 18.5274L7.35132 16.9088L8.6629 18.2204L10.824 16.0593L9.51239 14.7477L12.6785 11.5816C13.8134 12.2292 15.1469 12.5035 16.4538 12.3554C17.8588 12.1959 19.131 11.582 20.1329 10.5801C21.3036 9.40949 21.9482 7.85312 21.9482 6.19769C21.9482 4.54221 21.3035 2.9858 20.1329 1.81524ZM18.5834 6.45725C18.1571 6.88355 17.5971 7.09673 17.0371 7.09673C16.4772 7.09673 15.9172 6.88355 15.4909 6.45725C14.6382 5.60463 14.6382 4.21735 15.4909 3.36473C16.3435 2.5121 17.7308 2.5121 18.5834 3.36473C19.436 4.21735 19.436 5.60467 18.5834 6.45725Z" fill="#ED1A3B"/>
</g>
<defs>
<clipPath id="clip0">
<rect width="22" height="22" fill="white"/>
</clipPath>
</defs>
</svg>
