<svg width="31" height="31" viewBox="0 0 31 31" fill="none" xmlns="http://www.w3.org/2000/svg">
<path fill-rule="evenodd" clip-rule="evenodd" d="M18.3845 3C18.3845 1.34315 17.0413 0 15.3845 0C13.7276 0 12.3845 1.34315 12.3845 3V11.7396H3C1.34315 11.7396 7.24249e-08 13.0827 0 14.7396C-7.24212e-08 16.3964 1.34315 17.7396 3 17.7396H12.3845V27.7692C12.3845 29.4261 13.7276 30.7692 15.3845 30.7692C17.0413 30.7692 18.3845 29.4261 18.3845 27.7692V17.7396H27.7692C29.4261 17.7396 30.7692 16.3964 30.7692 14.7396C30.7692 13.0827 29.4261 11.7396 27.7692 11.7396H18.3845V3Z" fill="#4596D1"/>
</svg>
