<svg width="29" height="29" viewBox="0 0 29 29" fill="none" xmlns="http://www.w3.org/2000/svg">
<g clip-path="url(#clip0)">
<path d="M23.3792 20.1664L18.9701 18.6967C18.8647 18.6612 18.7541 18.6431 18.6428 18.6428H10.3572C10.2459 18.643 10.1354 18.6612 10.0299 18.6967L5.62083 20.1664C2.26215 21.2823 -0.00321296 24.4251 3.42054e-06 27.9642C3.42054e-06 28.5363 0.463708 29 1.03574 29H27.9643C28.5363 29 29 28.5363 29 27.9642C29.0032 24.4251 26.7379 21.2823 23.3792 20.1664Z" fill="#4596D1"/>
<path d="M14.4999 0C11.0679 0 8.28564 2.78223 8.28564 6.21428V10.3572C8.28904 13.7878 11.0693 16.568 14.4999 16.5714C17.9306 16.568 20.7108 13.7878 20.7142 10.3572V6.21428C20.7142 2.78223 17.932 0 14.4999 0Z" fill="#4596D1"/>
</g>
<defs>
<clipPath id="clip0">
<rect width="29" height="29" fill="white"/>
</clipPath>
</defs>
</svg>
