<svg width="11" height="13" viewBox="0 0 11 13" fill="none" xmlns="http://www.w3.org/2000/svg">
<g clip-path="url(#clip0)">
<path d="M1.38051 4.79431V5.26683C1.38051 7.42198 1.38051 9.57712 1.38051 11.7323C1.36224 11.9032 1.38269 12.076 1.44037 12.2381C1.49805 12.4001 1.59149 12.5473 1.71387 12.6689C1.83624 12.7904 1.98445 12.8832 2.14761 12.9405C2.31078 12.9978 2.48478 13.0181 2.65687 13C4.60624 13 6.544 13 8.45856 13C8.61497 13.0163 8.77306 12.9977 8.92131 12.9455C9.06955 12.8934 9.20419 12.809 9.31539 12.6985C9.4266 12.5881 9.51157 12.4544 9.56408 12.3071C9.61659 12.1599 9.63531 12.0028 9.6189 11.8475V4.80583L1.38051 4.79431ZM4.11891 8.57445C4.11891 9.34661 4.11891 10.1188 4.11891 10.8794C4.12465 10.9909 4.10218 11.1021 4.05356 11.2027C4.00494 11.3034 3.93171 11.3903 3.84056 11.4557C3.74941 11.521 3.64325 11.5626 3.53175 11.5767C3.42024 11.5908 3.30695 11.5769 3.20223 11.5363C3.06507 11.4861 2.94853 11.3921 2.87086 11.269C2.79318 11.146 2.75874 11.0009 2.77291 10.8564C2.77291 9.7615 2.77291 8.66666 2.77291 7.5718V6.23491C2.76337 6.1392 2.77337 6.04256 2.80234 5.95079C2.8313 5.85901 2.87862 5.77397 2.94147 5.70079C3.00431 5.62761 3.08138 5.5678 3.16806 5.52492C3.25474 5.48203 3.34924 5.45697 3.44591 5.45123C3.54252 5.45235 3.63783 5.47342 3.7258 5.51312C3.81376 5.55282 3.89244 5.61027 3.95683 5.68182C4.02123 5.75336 4.06992 5.83744 4.09982 5.9287C4.12972 6.01995 4.14017 6.11638 4.1305 6.21186C4.1305 7.0186 4.11891 7.79077 4.11891 8.63208V8.57445ZM6.18431 10.8794C6.19491 11.0133 6.16666 11.1474 6.10292 11.2659C6.03917 11.3844 5.94259 11.4822 5.82461 11.5479C5.72497 11.6245 5.60252 11.6661 5.4765 11.6661C5.35048 11.6661 5.22803 11.6245 5.1284 11.5479C4.97409 11.3948 4.87254 11.1971 4.83831 10.9831C4.83831 9.40423 4.83831 7.82533 4.83831 6.24643C4.83831 6.15865 4.85571 6.07173 4.88953 5.99063C4.92335 5.90954 4.97293 5.83586 5.03542 5.77379C5.09792 5.71172 5.17212 5.66248 5.25377 5.62888C5.33542 5.59529 5.42293 5.57801 5.51131 5.57801C5.59969 5.57801 5.6872 5.59529 5.76885 5.62888C5.8505 5.66248 5.9247 5.71172 5.98719 5.77379C6.04969 5.83586 6.09925 5.90954 6.13307 5.99063C6.16689 6.07173 6.18431 6.15865 6.18431 6.24643C6.18431 7.04165 6.18431 7.82534 6.18431 8.60902C6.18431 9.39271 6.1727 10.0957 6.18431 10.8564V10.8794ZM8.23809 8.57445C8.23809 9.34661 8.23809 10.1073 8.23809 10.8794C8.23809 11.3635 7.94801 11.6631 7.53029 11.6401C7.11256 11.617 6.8805 11.3174 6.8805 10.8448V6.23491C6.87419 6.14127 6.88714 6.04732 6.91857 5.9588C6.94999 5.87029 6.99922 5.78905 7.06327 5.72005C7.12732 5.65104 7.20485 5.59571 7.29112 5.55742C7.3774 5.51913 7.47062 5.49868 7.56511 5.49733C7.65913 5.49857 7.75187 5.51905 7.83758 5.55747C7.92328 5.59589 8.00011 5.65142 8.06325 5.72063C8.12639 5.78983 8.17451 5.8712 8.20459 5.95968C8.23468 6.04817 8.24607 6.14186 8.23809 6.23491C8.2497 6.98403 8.19169 7.76772 8.19169 8.53988L8.23809 8.57445Z" fill="#FA4B64"/>
<path d="M4.11903 6.23494C4.11903 7.01863 4.11903 7.79079 4.11903 8.5399C4.11903 9.28902 4.11903 10.0842 4.11903 10.8449C4.12478 10.9564 4.1023 11.0675 4.05368 11.1682C4.00506 11.2688 3.93184 11.3558 3.84068 11.4211C3.74953 11.4864 3.64337 11.528 3.53187 11.5421C3.42036 11.5562 3.30707 11.5424 3.20235 11.5018C3.06519 11.4515 2.94866 11.3575 2.87098 11.2345C2.7933 11.1115 2.75886 10.9663 2.77303 10.8218C2.77303 9.72696 2.77303 8.63211 2.77303 7.53725V6.20037C2.76349 6.10465 2.7735 6.00802 2.80246 5.91624C2.83142 5.82446 2.87875 5.73942 2.94159 5.66624C3.00443 5.59306 3.0815 5.53325 3.16818 5.49037C3.25486 5.44749 3.34937 5.42242 3.44603 5.41669C3.54731 5.41833 3.647 5.44191 3.73815 5.48576C3.82931 5.52962 3.90973 5.59269 3.97381 5.6706C4.03789 5.74851 4.08407 5.83938 4.10915 5.93685C4.13423 6.03432 4.13761 6.13605 4.11903 6.23494Z" fill="white"/>
<path d="M8.19216 6.21186C8.19216 6.98402 8.19216 7.76771 8.19216 8.51682C8.19216 9.26594 8.19216 10.0496 8.19216 10.8218C8.19216 11.3058 7.90207 11.6055 7.48435 11.5824C7.06663 11.5594 6.83456 11.2597 6.83456 10.7872V6.17729C6.82825 6.08364 6.84121 5.98971 6.87263 5.90119C6.90405 5.81268 6.95328 5.73142 7.01733 5.66242C7.08138 5.59341 7.15891 5.53808 7.24518 5.49979C7.33146 5.4615 7.42467 5.44105 7.51916 5.4397C7.61646 5.44044 7.71247 5.46178 7.80081 5.50228C7.88916 5.54279 7.9678 5.60154 8.03148 5.6746C8.09516 5.74767 8.14244 5.83338 8.17015 5.92602C8.19785 6.01867 8.20535 6.11611 8.19216 6.21186Z" fill="white"/>
<path d="M6.18486 8.55144C6.18486 9.3236 6.18486 10.0958 6.18486 10.8564C6.19546 10.9903 6.16722 11.1244 6.10347 11.2429C6.03972 11.3614 5.94315 11.4592 5.82516 11.5248C5.72552 11.6015 5.60307 11.6431 5.47706 11.6431C5.35104 11.6431 5.22859 11.6015 5.12895 11.5248C4.97464 11.3718 4.8731 11.1741 4.83887 10.9601C4.83887 9.38124 4.83887 7.80234 4.83887 6.22343C4.83887 6.13565 4.85627 6.04873 4.89009 5.96764C4.92391 5.88654 4.97349 5.81284 5.03598 5.75077C5.09847 5.6887 5.17267 5.63946 5.25432 5.60587C5.33597 5.57228 5.42349 5.55499 5.51186 5.55499C5.60024 5.55499 5.68776 5.57228 5.76941 5.60587C5.85106 5.63946 5.92526 5.6887 5.98775 5.75077C6.05024 5.81284 6.0998 5.88654 6.13362 5.96764C6.16744 6.04873 6.18486 6.13565 6.18486 6.22343C6.18486 6.98407 6.18486 7.76775 6.18486 8.55144Z" fill="white"/>
<path d="M3.77075 1.32536V0.472522C3.77075 0.138302 3.88679 0.0115356 4.21168 0.0115356C5.07033 0.0115356 5.92897 0.0115356 6.78762 0.0115356C7.11251 0.0115356 7.22855 0.138308 7.22855 0.461003C7.22855 0.783698 7.22855 1.04877 7.22855 1.38299H8.38889C9.21273 1.38299 9.54923 1.75179 9.60725 2.53547C9.60289 2.59302 9.60289 2.6508 9.60725 2.70834H10.2338C10.4185 2.70834 10.5956 2.78119 10.7261 2.91087C10.8567 3.04055 10.93 3.21644 10.93 3.39984C10.93 3.58323 10.8567 3.7591 10.7261 3.88878C10.5956 4.01846 10.4185 4.09132 10.2338 4.09132H0.707459C0.613174 4.09758 0.518587 4.08472 0.429468 4.05351C0.340348 4.0223 0.25856 3.9734 0.189082 3.90978C0.119604 3.84616 0.0638948 3.76916 0.025343 3.68347C-0.0132088 3.59778 -0.0337921 3.5052 -0.0351561 3.41136C-0.0352072 3.31706 -0.0161671 3.22371 0.0208459 3.13688C0.0578588 3.05005 0.112079 2.9715 0.180283 2.90591C0.248486 2.84032 0.329281 2.78903 0.417853 2.75508C0.506424 2.72114 0.60096 2.70525 0.695845 2.70834H1.34565V2.35107C1.35165 2.08809 1.46029 1.83771 1.64864 1.65279C1.83699 1.46786 2.09031 1.36286 2.35514 1.35994H3.66632L3.77075 1.32536ZM4.47856 1.32536H6.50915V0.714551H4.47856V1.32536Z" fill="#797273"/>
</g>
<defs>
<clipPath id="clip0">
<rect width="11" height="13" fill="white"/>
</clipPath>
</defs>
</svg>
