<svg width="28" height="27" viewBox="0 0 28 27" fill="none" xmlns="http://www.w3.org/2000/svg">
<g clip-path="url(#clip0)">
<path d="M14.0882 27H7.90914C7.29577 27.0135 6.68831 26.8784 6.13925 26.6063C5.59019 26.3342 5.11606 25.9332 4.75784 25.4381C4.34201 24.8794 4.10238 24.2106 4.06932 23.5164C4.06932 23.2707 4.06932 23.0338 4.06932 22.7881V18.0146C4.06932 17.804 4.06931 17.804 3.86628 17.804C3.08524 17.7764 2.32997 17.5193 1.69578 17.0653C1.0616 16.6113 0.576953 15.9807 0.303057 15.2531C0.029162 14.5255 -0.0217098 13.7335 0.156862 12.9772C0.335433 12.2208 0.735445 11.534 1.30639 11.0035C4.56658 7.77442 7.82088 4.53654 11.0693 1.28988C11.4322 0.899 11.8697 0.583773 12.3563 0.36259C12.8429 0.141408 13.369 0.0186848 13.9038 0.00153578C14.4386 -0.0156133 14.9715 0.0731596 15.4714 0.262707C15.9713 0.452253 16.4284 0.738772 16.8159 1.10559C17.5926 1.82512 18.3341 2.59732 19.0844 3.34317L26.7377 10.9421C27.3305 11.4971 27.7503 12.2099 27.947 12.9954C28.063 13.5014 28.0773 14.0251 27.9891 14.5365C27.9009 15.048 27.712 15.5371 27.4331 15.9757C27.1542 16.4144 26.7909 16.794 26.3641 17.0926C25.9372 17.3913 25.4552 17.6033 24.9457 17.7163C24.7061 17.7556 24.4644 17.7819 24.2219 17.7952C24.0453 17.7952 24.0277 17.7952 24.0277 18.0058V23.2707C24.0182 24.2153 23.6484 25.1211 22.993 25.8052C22.3376 26.4892 21.4455 26.9006 20.4968 26.9561H19.9142L14.0882 27ZM16.3039 21.1823V20.1557C16.3039 19.9889 16.3039 19.8134 16.3039 19.6379C16.2554 19.3452 16.1404 19.0674 15.9675 18.8256C15.7947 18.5838 15.5685 18.3844 15.3064 18.2427C14.9981 18.0527 14.6507 17.9343 14.29 17.8963C13.9293 17.8583 13.5646 17.9017 13.2232 18.0234C12.7885 18.1406 12.4046 18.3963 12.1303 18.7514C11.856 19.1065 11.7066 19.5413 11.7049 19.9889C11.7049 20.805 11.7049 21.6298 11.7049 22.4459C11.7028 22.8558 11.8396 23.2546 12.0933 23.5778C12.3011 23.8326 12.5575 24.0439 12.8479 24.1995C13.1383 24.3552 13.4568 24.4522 13.7851 24.4848C14.1134 24.5174 14.445 24.4851 14.7606 24.3897C15.0762 24.2942 15.3698 24.1376 15.6242 23.9288C15.8371 23.7668 16.0115 23.5601 16.1351 23.3236C16.2587 23.087 16.3283 22.8263 16.3392 22.5599C16.3215 22.1036 16.3039 21.6386 16.3039 21.1823Z" fill="#4596D1"/>
<path d="M16.304 21.1823C16.304 21.6386 16.304 22.1036 16.304 22.5599C16.2932 22.8263 16.2235 23.087 16.0999 23.3235C15.9763 23.5601 15.8019 23.7668 15.589 23.9288C15.3346 24.1376 15.0411 24.2942 14.7254 24.3897C14.4098 24.4851 14.0782 24.5174 13.75 24.4848C13.4217 24.4522 13.1031 24.3552 12.8128 24.1995C12.5224 24.0439 12.2659 23.8326 12.0581 23.5778C11.8044 23.2546 11.6676 22.8558 11.6697 22.4459C11.6697 21.6298 11.6697 20.805 11.6697 19.9889C11.6714 19.5413 11.8208 19.1065 12.0951 18.7514C12.3694 18.3963 12.7533 18.1406 13.188 18.0234C13.5294 17.9017 13.8941 17.8583 14.2548 17.8963C14.6155 17.9342 14.963 18.0527 15.2712 18.2427C15.5334 18.3844 15.7595 18.5838 15.9324 18.8256C16.1052 19.0674 16.2203 19.3452 16.2687 19.6379C16.2687 19.8134 16.2687 19.9889 16.2687 20.1556V21.1823H16.304Z" fill="white"/>
</g>
<defs>
<clipPath id="clip0">
<rect width="28" height="27" fill="white"/>
</clipPath>
</defs>
</svg>
