<svg width="24" height="24" viewBox="0 0 24 24" fill="none" xmlns="http://www.w3.org/2000/svg">
<g clip-path="url(#clip0)">
<path d="M0 11.36C0 11.2 0 11.04 0 10.88C0.177264 8.66903 0.97829 6.55376 2.31 4.77998C3.10261 3.71382 4.07765 2.79634 5.19 2.06998C5.41772 1.90083 5.69088 1.80377 5.97427 1.79129C6.25766 1.77882 6.5383 1.8515 6.78 1.99998C7.03248 2.14061 7.23642 2.35444 7.36495 2.61328C7.49348 2.87213 7.54057 3.16384 7.5 3.44998C7.48366 3.62788 7.43082 3.8005 7.3448 3.95707C7.25877 4.11364 7.1414 4.25079 7 4.35998C6.7 4.61998 6.37 4.84998 6.07 5.10998C4.58951 6.37472 3.56972 8.0943 3.17 9.99998C2.97002 10.8886 2.91263 11.8033 3 12.71C3.14785 14.3861 3.78412 15.9819 4.83 17.3C6.08267 18.9466 7.87946 20.0949 9.9 20.54C10.7874 20.7479 11.7023 20.812 12.61 20.73C14.3329 20.5992 15.977 19.9547 17.33 18.88C18.977 17.6121 20.1213 15.8016 20.56 13.77C20.7377 12.9527 20.8016 12.1148 20.75 11.28C20.6287 9.39209 19.9029 7.59338 18.68 6.14998C18.1523 5.51867 17.5399 4.96341 16.86 4.49998C16.6162 4.33063 16.4289 4.09185 16.3225 3.81467C16.2161 3.53749 16.1956 3.23473 16.2635 2.94571C16.3315 2.6567 16.4847 2.3948 16.7035 2.19405C16.9222 1.99329 17.1962 1.86296 17.49 1.81998C17.7018 1.79016 17.9176 1.81072 18.12 1.87998C18.4343 1.98913 18.7258 2.15524 18.98 2.36998C20.7474 3.6922 22.1089 5.48326 22.91 7.53998C23.2943 8.50091 23.5434 9.51055 23.65 10.54C23.8493 12.1599 23.7057 13.8037 23.2285 15.3645C22.7512 16.9254 21.9511 18.3684 20.88 19.6C19.1932 21.6133 16.8736 22.9952 14.3 23.52C13.3137 23.7229 12.3057 23.8002 11.3 23.75C9.55057 23.6651 7.84224 23.1902 6.3 22.36C4.84533 21.5861 3.56773 20.5178 2.54851 19.2231C1.52929 17.9284 0.790782 16.4357 0.38 14.84C0.173957 14.0886 0.0466059 13.3177 0 12.54C0.00555635 12.4935 0.00555635 12.4465 0 12.4L0 11.36Z" fill="white"/>
<path d="M12.06 0C12.2358 0.0467424 12.4065 0.110372 12.57 0.19C12.8125 0.314436 13.014 0.506001 13.1505 0.741832C13.287 0.977662 13.3528 1.2478 13.34 1.52V7.36C13.34 7.87 13.34 8.36 13.34 8.89C13.3266 9.26351 13.1723 9.6181 12.9081 9.88255C12.644 10.147 12.2896 10.3017 11.9161 10.3156C11.5426 10.3296 11.1777 10.2017 10.8946 9.95763C10.6115 9.71359 10.4313 9.37147 10.39 9C10.39 8.32 10.39 7.64 10.39 7C10.39 5.21 10.39 3.41 10.39 1.62C10.357 1.24236 10.4672 0.866117 10.6988 0.565994C10.9304 0.265872 11.2664 0.0638304 11.64 0V0H12.06Z" fill="white"/>
</g>
<defs>
<clipPath id="clip0">
<rect width="23.72" height="23.73" fill="white"/>
</clipPath>
</defs>
</svg>
