<svg width="36" height="24" viewBox="0 0 36 24" fill="none" xmlns="http://www.w3.org/2000/svg">
<g clip-path="url(#clip0)">
<path d="M8.91859 16.1814L7.44214 14.7212L8.2711 17.731L8.91859 16.1814Z" fill="white"/>
<path d="M5.94922 16.1936L6.59671 17.788L7.44217 14.7212L5.94922 16.1936Z" fill="#DEDEE0"/>
<path d="M6.60491 14.1517L5.55737 13.1227V14.1517C6.03012 14.4733 6.58083 14.6656 7.15343 14.709L6.60491 14.1517Z" fill="#FFCAB3"/>
<path d="M5.55737 12.4434V13.1227L6.60491 14.1517L7.16993 14.709C7.26066 14.709 7.35139 14.709 7.44212 14.709H7.61534C8.2173 14.6816 8.79978 14.4901 9.298 14.1558V12.4475L5.55737 12.4434Z" fill="#F9B59D"/>
<path d="M9.19907 7.34296C8.47322 7.34296 7.61126 7.9734 7.17822 8.47776L7.44217 13.8508C9.36404 13.8508 10.9436 11.4998 11.1539 9.52307C11.1716 9.36774 11.1813 9.21162 11.1828 9.05532V8.24185C10.9931 7.74969 9.75171 7.34296 9.19907 7.34296Z" fill="#F9B59D"/>
<path d="M10.4116 5.48416C8.65206 6.69312 6.55942 7.34179 4.415 7.34295C4.15518 7.34295 3.90361 7.34295 3.64791 7.31448C3.6304 7.45894 3.62076 7.60422 3.61904 7.74969V9.05532C3.61852 9.21168 3.62817 9.36792 3.64791 9.52307C3.87474 11.512 5.47079 13.8508 7.40503 13.8508H7.44215V11.4103C7.5563 11.4051 7.66371 11.3555 7.74096 11.2724C7.81821 11.1894 7.85905 11.0796 7.85457 10.967V8.56317C7.85457 8.56317 7.90406 8.50216 7.99479 8.40454C8.35149 7.98124 8.85633 7.70544 9.40938 7.63174C9.73651 7.6104 10.0646 7.65493 10.3737 7.76261C10.6829 7.8703 10.9666 8.03888 11.2075 8.25811V7.74969C11.2035 6.92849 10.9236 6.13177 10.4116 5.48416Z" fill="#FFCAB3"/>
<path d="M11.5045 4.62594C10.9163 3.78824 10.0771 3.15309 9.1044 2.80954C8.13173 2.46599 7.07444 2.43126 6.08075 2.71024C5.08707 2.98921 4.20683 3.56789 3.56345 4.36515C2.92007 5.1624 2.54582 6.13824 2.49316 7.15585C2.49316 7.24126 2.49316 7.33075 2.49316 7.42023V8.3964C2.49316 8.69488 2.61282 8.98126 2.82605 9.19308C3.03928 9.4049 3.32879 9.52498 3.63144 9.52713H3.64793C3.62819 9.37198 3.61855 9.21574 3.61906 9.05938V7.74968C3.62034 7.60014 3.62998 7.45077 3.64793 7.30227C3.90363 7.30227 4.15521 7.33075 4.41503 7.33075C6.55832 7.33447 8.65124 6.68997 10.4116 5.48416C10.9192 6.13333 11.1947 6.92991 11.1952 7.74968V9.05531C11.1937 9.21161 11.184 9.36773 11.1663 9.52306H11.257C11.5597 9.52091 11.8492 9.40084 12.0624 9.18902C12.2757 8.97719 12.3953 8.69081 12.3953 8.39233V7.41616C12.3965 6.41786 12.0854 5.44349 11.5045 4.62594Z" fill="#2E313D"/>
<path d="M5.5863 14.1517V15.2296L5.99872 16.1936L7.49167 14.7212C6.81225 14.7294 6.14682 14.5305 5.5863 14.1517Z" fill="#F8F8F9"/>
<path d="M9.31859 15.2296V14.1517C8.76966 14.5226 8.11985 14.7211 7.45447 14.7212L8.93092 16.1814L9.31859 15.2296Z" fill="#DEDEE0"/>
<path d="M11.3602 14.1517H9.29811V15.2296L8.25057 17.731L7.42574 14.7212L6.57616 17.788L5.54099 15.2296L4.01917 16.7427L7.11642 19.7973H14.6595V17.4138C14.6606 16.9858 14.5761 16.5618 14.4108 16.1661C14.2454 15.7703 14.0026 15.4107 13.6961 15.1077C13.3896 14.8046 13.0255 14.5642 12.6247 14.4002C12.2239 14.2362 11.7942 14.1517 11.3602 14.1517Z" fill="#B50D2D"/>
<path d="M5.55741 14.1517H4.46863L5.55741 15.2255V14.1517Z" fill="#ED1A3B"/>
<path d="M4.0191 16.7427L5.55742 15.2296L4.46863 14.1517H3.5242C2.64916 14.1517 1.80996 14.4946 1.19121 15.1048C0.572462 15.715 0.224854 16.5426 0.224854 17.4056L0.224854 19.7891H7.11636L4.0191 16.7427Z" fill="#ED1A3B"/>
<path d="M7.43993 14.7233L6.59131 15.5602L7.43993 16.3972L8.28856 15.5602L7.43993 14.7233Z" fill="#585A64"/>
<path d="M7.07921 16.039L6.59668 17.788L7.44214 18.6381L8.2711 17.731L7.80506 16.039L7.40502 15.8844L7.07921 16.039Z" fill="#585A64"/>
<path d="M29.4364 16.1814L27.96 14.7212L28.7889 17.731L29.4364 16.1814Z" fill="white"/>
<path d="M26.467 16.1936L27.1104 17.788L27.96 14.7212L26.467 16.1936Z" fill="#DEDEE0"/>
<path d="M27.1227 14.1517L26.0752 13.1227V14.1517C26.5479 14.4733 27.0987 14.6656 27.6713 14.709L27.1227 14.1517Z" fill="#FFCAB3"/>
<path d="M26.0752 12.4434V13.1227L27.1227 14.1517L27.6877 14.709C27.7785 14.709 27.8692 14.709 27.9599 14.709H28.1332C28.7369 14.6811 29.321 14.4882 29.8199 14.1517V12.4434H26.0752Z" fill="#F9B59D"/>
<path d="M29.7169 7.34296C28.991 7.34296 28.1291 7.9734 27.696 8.47776L27.96 13.8508C29.8819 13.8508 31.4573 11.4998 31.6718 9.52307C31.6895 9.36774 31.6991 9.21162 31.7006 9.05532V8.24185C31.5109 7.74969 30.2695 7.34296 29.7169 7.34296Z" fill="#F9B59D"/>
<path d="M30.9294 5.48416C29.1699 6.69312 27.0773 7.34179 24.9328 7.34295C24.673 7.34295 24.4214 7.34295 24.1657 7.31448C24.151 7.45908 24.1441 7.60436 24.1451 7.74969V9.05532C24.1446 9.21168 24.1542 9.36792 24.174 9.52307C24.3884 11.512 25.9886 13.8508 27.9229 13.8508H27.96V11.4103C28.0741 11.4051 28.1815 11.3555 28.2588 11.2724C28.336 11.1894 28.3769 11.0796 28.3724 10.967V8.56317C28.3724 8.56317 28.4219 8.50216 28.5126 8.40454C28.8654 7.97935 29.3674 7.70058 29.919 7.6236C30.2461 7.60227 30.5742 7.6468 30.8833 7.75448C31.1925 7.86216 31.4761 8.03075 31.7171 8.24998V7.74969C31.7154 6.92944 31.4385 6.13281 30.9294 5.48416Z" fill="#FFCAB3"/>
<path d="M32.0223 4.62594C31.4341 3.78824 30.5949 3.15309 29.6222 2.80954C28.6496 2.46599 27.5923 2.43126 26.5986 2.71024C25.6049 2.98921 24.7247 3.56789 24.0813 4.36515C23.4379 5.1624 23.0636 6.13824 23.011 7.15585C23.011 7.24126 23.011 7.33075 23.011 7.42023V8.3964C23.011 8.69418 23.1301 8.97996 23.3424 9.19166C23.5548 9.40337 23.8432 9.52392 24.1451 9.52713H24.1699C24.1515 9.37189 24.1433 9.21566 24.1451 9.05938V7.74968C24.1463 7.59878 24.1559 7.44805 24.174 7.29821C24.4297 7.29821 24.6813 7.32668 24.9411 7.32668C27.0842 7.32909 29.1767 6.68472 30.9377 5.48009C31.4432 6.13141 31.7158 6.92947 31.713 7.74968V9.05531C31.7115 9.21161 31.7018 9.36773 31.6841 9.52306H31.7749C32.0775 9.52091 32.367 9.40084 32.5803 9.18902C32.7935 8.97719 32.9131 8.69081 32.9131 8.39233V7.41616C32.9143 6.41786 32.6032 5.44349 32.0223 4.62594Z" fill="#2E313D"/>
<path d="M26.0917 14.1517V15.2296L26.5041 16.1936L27.997 14.7212C27.3176 14.7294 26.6522 14.5305 26.0917 14.1517Z" fill="#F8F8F9"/>
<path d="M29.8364 15.2296V14.1517C29.2875 14.5226 28.6377 14.7211 27.9723 14.7212L29.4487 16.1814L29.8364 15.2296Z" fill="#DEDEE0"/>
<path d="M31.8573 14.1517H29.8282V15.2296L28.7807 17.731L27.9558 14.7212L27.1062 17.788L26.0711 15.2296L24.5575 16.7427L27.6548 19.7973H35.1649V17.4138C35.166 16.9851 35.0812 16.5604 34.9153 16.1642C34.7495 15.7679 34.5059 15.4079 34.1985 15.1048C33.8912 14.8017 33.5261 14.5614 33.1243 14.3979C32.7226 14.2343 32.292 14.1507 31.8573 14.1517Z" fill="#B50D2D"/>
<path d="M26.0752 14.1517H24.9865L26.0752 15.2255V14.1517Z" fill="#ED1A3B"/>
<path d="M24.5576 16.7427L26.0959 15.2296L24.97 14.1517H24.0462C23.1711 14.1517 22.3319 14.4946 21.7132 15.1048C21.0944 15.715 20.7468 16.5426 20.7468 17.4056V19.7891H27.6342L24.5576 16.7427Z" fill="#ED1A3B"/>
<path d="M27.9571 14.7198L27.1085 15.5567L27.9571 16.3937L28.8058 15.5567L27.9571 14.7198Z" fill="#585A64"/>
<path d="M27.5929 16.039L27.1104 17.788L27.9599 18.6381L28.7889 17.731L28.3229 16.039L27.9228 15.8844L27.5929 16.039Z" fill="#585A64"/>
<path d="M19.6539 18.8699L17.7031 16.942L18.8002 20.9199L19.6539 18.8699Z" fill="white"/>
<path d="M15.7277 18.8862L16.5814 20.9971L17.7031 16.942L15.7277 18.8862Z" fill="#DEDEE0"/>
<path d="M16.5938 16.1895L15.2163 14.831V16.1895C15.8421 16.6118 16.5682 16.8669 17.3238 16.9298L16.5938 16.1895Z" fill="#FFCAB3"/>
<path d="M15.2163 13.9321V14.831L16.5938 16.1895L17.3444 16.9298C17.4599 16.9298 17.5795 16.9298 17.7032 16.9298H17.9341C18.7316 16.8908 19.5025 16.6346 20.1612 16.1895V13.9321H15.2163Z" fill="#F9B59D"/>
<path d="M20.0209 7.18025C19.064 7.18025 17.9258 7.99373 17.3484 8.67705L17.6989 15.799C20.2353 15.7746 22.3221 12.6915 22.6191 10.0803C22.6437 9.8751 22.6561 9.66867 22.6562 9.46205V8.38826C22.3964 7.71308 20.755 7.18025 20.0209 7.18025Z" fill="#F9B59D"/>
<path d="M21.6252 4.73576C19.3 6.33011 16.5346 7.18197 13.7027 7.17619C13.3604 7.17619 13.0263 7.17619 12.6922 7.13552C12.6659 7.33378 12.6521 7.53347 12.651 7.73342V9.45799C12.6511 9.66461 12.6635 9.87104 12.6881 10.0762C12.9851 12.6997 15.0966 15.795 17.6578 15.795H17.7031V12.5655C17.8504 12.555 17.9879 12.4885 18.0864 12.38C18.1849 12.2714 18.2367 12.1294 18.231 11.9838V8.79501C18.2891 8.72268 18.3511 8.65343 18.4166 8.58757C18.7507 8.23778 19.493 7.56259 20.289 7.56259C21.9387 7.56259 22.6604 8.37607 22.6604 8.37607V7.74969C22.6636 6.65966 22.2994 5.59949 21.6252 4.73576Z" fill="#FFCAB3"/>
<path d="M23.0727 3.60096C22.2932 2.49872 21.1844 1.66373 19.9009 1.21233C18.6174 0.760934 17.2231 0.715611 15.9123 1.08268C14.6015 1.44974 13.4394 2.21092 12.5879 3.26015C11.7364 4.30938 11.238 5.59441 11.1621 6.93621C11.1621 7.05417 11.1621 7.16805 11.1621 7.28601V8.57943C11.1621 8.97392 11.3204 9.35238 11.6025 9.63209C11.8846 9.91179 12.2674 10.07 12.6674 10.0722H12.6963C12.6717 9.86697 12.6593 9.66054 12.6592 9.45392V7.74969C12.6603 7.54974 12.6741 7.35005 12.7004 7.15178C13.0345 7.17619 13.3685 7.19246 13.7109 7.19246C16.5437 7.19567 19.3097 6.34409 21.6375 4.75203C22.3039 5.61291 22.6634 6.66665 22.6603 7.74969V9.47426C22.6602 9.68087 22.6478 9.88731 22.6232 10.0925H22.7469C23.1469 10.0903 23.5298 9.93213 23.8119 9.65242C24.0939 9.37271 24.2523 8.99426 24.2523 8.59977V7.29414C24.2542 5.97264 23.8423 4.6828 23.0727 3.60096Z" fill="#2E313D"/>
<path d="M15.2368 16.1895V17.6131L15.7482 18.8902L17.7237 16.942C16.8362 16.9482 15.9681 16.6855 15.2368 16.1895Z" fill="#F8F8F9"/>
<path d="M20.1818 17.6131V16.1895C19.4543 16.6838 18.5907 16.9464 17.7073 16.942L19.658 18.8699L20.1818 17.6131Z" fill="#DEDEE0"/>
<path d="M22.8542 16.1895H20.1693V17.6131L18.7836 20.9199L17.7031 16.942L16.5813 21.0093L15.2162 17.6253L13.183 19.6305L17.2742 23.6653H27.2217V20.5009C27.2222 19.9349 27.1097 19.3744 26.8904 18.8513C26.6712 18.3283 26.3496 17.8529 25.9439 17.4525C25.5383 17.0521 25.0567 16.7345 24.5265 16.5178C23.9964 16.301 23.4281 16.1895 22.8542 16.1895Z" fill="#B50D2D"/>
<path d="M15.2122 16.1895H13.7728L15.2122 17.6131V16.1895Z" fill="#ED1A3B"/>
<path d="M13.1831 19.6183L15.2163 17.6131L13.7728 16.1895H12.5356C11.3769 16.1895 10.2655 16.6432 9.44582 17.4508C8.6261 18.2585 8.16503 19.3541 8.16394 20.4969V23.6531H17.2743L13.1831 19.6183Z" fill="#ED1A3B"/>
<path d="M17.6998 16.9429L16.577 18.0502L17.6998 19.1575L18.8225 18.0502L17.6998 16.9429Z" fill="#585A64"/>
<path d="M17.2207 18.6828L16.5814 20.9971L17.7032 22.1197L18.8002 20.9199L18.1816 18.6828L17.6578 18.4794L17.2207 18.6828Z" fill="#585A64"/>
</g>
<defs>
<clipPath id="clip0">
<rect width="34.94" height="22.818" fill="white" transform="translate(0.224854 0.835144)"/>
</clipPath>
</defs>
</svg>
