<svg width="644" height="507" viewBox="0 0 644 507" fill="none" xmlns="http://www.w3.org/2000/svg">
<path d="M55.6834 225.819C54.3383 225.819 53.2702 225.465 52.479 224.757C51.6878 223.97 51.2131 223.025 51.0548 221.924L38.1187 146.486C38.0396 146.25 38 145.975 38 145.66C38 145.03 38.2374 144.479 38.7121 144.007C39.2659 143.456 39.8593 143.181 40.4923 143.181H55.2086C57.424 143.181 58.6504 144.046 58.8877 145.778L66.6019 191.819L75.1469 164.667C76.0172 162.542 77.3227 161.479 79.0634 161.479H87.6083C89.5863 161.479 90.8918 162.542 91.5248 164.667L100.07 191.819L107.784 145.778C108.021 144.046 109.248 143.181 111.463 143.181H126.179C126.891 143.181 127.485 143.456 127.96 144.007C128.513 144.479 128.79 145.03 128.79 145.66L128.672 146.486L115.736 221.924C115.577 223.025 115.063 223.97 114.193 224.757C113.401 225.465 112.373 225.819 111.107 225.819H99.8324C98.5665 225.819 97.5775 225.505 96.8654 224.875C96.1533 224.245 95.639 223.537 95.3225 222.75L83.3358 188.986L71.3491 222.75C70.6371 224.796 69.1733 225.819 66.958 225.819H55.6834Z" fill="#ED1A3B"/>
<path d="M143.988 225.819C143.197 225.819 142.485 225.544 141.852 224.993C141.298 224.363 141.021 223.655 141.021 222.868V146.132C141.021 145.266 141.298 144.558 141.852 144.007C142.485 143.456 143.197 143.181 143.988 143.181H199.412C200.282 143.181 200.994 143.456 201.548 144.007C202.102 144.558 202.379 145.266 202.379 146.132V157.229C202.379 158.016 202.102 158.725 201.548 159.354C200.994 159.905 200.282 160.181 199.412 160.181H161.553V176.118H196.801C197.671 176.118 198.383 176.433 198.937 177.063C199.491 177.613 199.768 178.322 199.768 179.188V189.458C199.768 190.245 199.491 190.954 198.937 191.583C198.383 192.134 197.671 192.41 196.801 192.41H161.553V208.819H200.361C201.231 208.819 201.943 209.095 202.497 209.646C203.051 210.197 203.328 210.905 203.328 211.771V222.868C203.328 223.655 203.051 224.363 202.497 224.993C201.943 225.544 201.231 225.819 200.361 225.819H143.988Z" fill="#ED1A3B"/>
<path d="M219.786 225.819C218.994 225.819 218.282 225.544 217.649 224.993C217.096 224.363 216.819 223.655 216.819 222.868V146.132C216.819 145.266 217.096 144.558 217.649 144.007C218.282 143.456 218.994 143.181 219.786 143.181H235.451C236.322 143.181 237.034 143.456 237.588 144.007C238.142 144.558 238.418 145.266 238.418 146.132V207.993H274.379C275.249 207.993 275.961 208.308 276.515 208.938C277.069 209.488 277.346 210.197 277.346 211.063V222.868C277.346 223.655 277.069 224.363 276.515 224.993C275.961 225.544 275.249 225.819 274.379 225.819H219.786Z" fill="#ED1A3B"/>
<path d="M320.651 227C309.337 227 300.475 224.285 294.066 218.854C287.737 213.345 284.374 205.396 283.979 195.007C283.9 192.882 283.86 189.419 283.86 184.618C283.86 179.738 283.9 176.197 283.979 173.993C284.374 163.762 287.816 155.891 294.304 150.382C300.792 144.794 309.574 142 320.651 142C327.613 142 333.864 143.181 339.402 145.542C344.941 147.824 349.292 151.13 352.457 155.458C355.701 159.708 357.363 164.706 357.442 170.451V170.688C357.442 171.317 357.165 171.868 356.611 172.34C356.136 172.734 355.582 172.931 354.949 172.931H338.928C337.899 172.931 337.108 172.734 336.554 172.34C336 171.868 335.525 171.042 335.13 169.861C334.022 165.847 332.281 163.053 329.908 161.479C327.534 159.826 324.409 159 320.532 159C311.196 159 306.37 164.194 306.053 174.583C305.974 176.708 305.934 179.975 305.934 184.382C305.934 188.789 305.974 192.134 306.053 194.417C306.37 204.806 311.196 210 320.532 210C324.409 210 327.574 209.174 330.027 207.521C332.479 205.789 334.18 202.995 335.13 199.139C335.446 197.958 335.881 197.171 336.435 196.778C336.989 196.306 337.82 196.069 338.928 196.069H354.949C355.661 196.069 356.255 196.306 356.73 196.778C357.283 197.25 357.521 197.84 357.442 198.549C357.363 204.294 355.701 209.331 352.457 213.66C349.292 217.91 344.941 221.215 339.402 223.576C333.864 225.859 327.613 227 320.651 227Z" fill="#ED1A3B"/>
<path d="M403.863 227C392.707 227 383.925 224.285 377.516 218.854C371.108 213.424 367.705 205.435 367.31 194.889C367.231 192.606 367.191 189.222 367.191 184.736C367.191 180.171 367.231 176.748 367.31 174.465C367.705 164.076 371.147 156.088 377.635 150.5C384.202 144.833 392.945 142 403.863 142C414.782 142 423.525 144.833 430.092 150.5C436.659 156.088 440.1 164.076 440.417 174.465C440.575 179.03 440.654 182.454 440.654 184.736C440.654 186.94 440.575 190.324 440.417 194.889C440.021 205.435 436.619 213.424 430.21 218.854C423.802 224.285 415.019 227 403.863 227ZM403.863 210C408.215 210 411.657 208.701 414.188 206.104C416.799 203.507 418.184 199.532 418.342 194.181C418.501 189.616 418.58 186.389 418.58 184.5C418.58 182.454 418.501 179.227 418.342 174.819C418.184 169.468 416.799 165.493 414.188 162.896C411.577 160.299 408.136 159 403.863 159C399.591 159 396.149 160.299 393.538 162.896C391.006 165.493 389.622 169.468 389.384 174.819C389.305 177.023 389.266 180.25 389.266 184.5C389.266 188.671 389.305 191.898 389.384 194.181C389.622 199.532 391.006 203.507 393.538 206.104C396.07 208.701 399.512 210 403.863 210Z" fill="#ED1A3B"/>
<path d="M457.378 225.819C456.587 225.819 455.875 225.544 455.242 224.993C454.688 224.363 454.411 223.655 454.411 222.868V146.132C454.411 145.266 454.688 144.558 455.242 144.007C455.875 143.456 456.587 143.181 457.378 143.181H470.195C472.094 143.181 473.479 144.046 474.349 145.778L495.237 182.965L516.125 145.778C516.995 144.046 518.379 143.181 520.278 143.181H532.977C533.847 143.181 534.56 143.456 535.113 144.007C535.746 144.558 536.063 145.266 536.063 146.132V222.868C536.063 223.734 535.746 224.442 535.113 224.993C534.56 225.544 533.847 225.819 532.977 225.819H518.854C517.984 225.819 517.232 225.544 516.599 224.993C516.045 224.442 515.769 223.734 515.769 222.868V178.597L502.476 203.271C501.448 205.081 500.063 205.986 498.323 205.986H492.151C491.123 205.986 490.292 205.75 489.659 205.278C489.026 204.806 488.472 204.137 487.997 203.271L474.586 178.597V222.868C474.586 223.655 474.31 224.363 473.756 224.993C473.202 225.544 472.49 225.819 471.619 225.819H457.378Z" fill="#ED1A3B"/>
<path d="M555.66 225.819C554.869 225.819 554.157 225.544 553.524 224.993C552.97 224.363 552.693 223.655 552.693 222.868V146.132C552.693 145.266 552.97 144.558 553.524 144.007C554.157 143.456 554.869 143.181 555.66 143.181H611.084C611.954 143.181 612.666 143.456 613.22 144.007C613.774 144.558 614.051 145.266 614.051 146.132V157.229C614.051 158.016 613.774 158.725 613.22 159.354C612.666 159.905 611.954 160.181 611.084 160.181H573.225V176.118H608.473C609.343 176.118 610.055 176.433 610.609 177.063C611.163 177.613 611.44 178.322 611.44 179.188V189.458C611.44 190.245 611.163 190.954 610.609 191.583C610.055 192.134 609.343 192.41 608.473 192.41H573.225V208.819H612.033C612.903 208.819 613.615 209.095 614.169 209.646C614.723 210.197 615 210.905 615 211.771V222.868C615 223.655 614.723 224.363 614.169 224.993C613.615 225.544 612.903 225.819 612.033 225.819H555.66Z" fill="#ED1A3B"/>
<path d="M314.191 1.12688C311.476 0.685889 308.693 0.971598 306.124 1.95496C304.874 2.39927 303.684 2.99884 302.584 3.7396C302.312 3.92521 299.728 6.13816 299.728 6.15244C298.226 5.19329 296.505 4.63233 294.727 4.52242C292.948 4.41252 291.171 4.75729 289.563 5.52425C288.154 6.23513 286.92 7.24933 285.951 8.49389C285.722 8.79371 283.638 12.3915 284.095 12.5486C277.256 10.25 268.975 15.6325 268.29 22.8139C290.572 23.1851 312.858 23.3516 335.15 23.3136C335.397 22.0395 335.3 20.7224 334.868 19.4986C334.435 18.2747 333.684 17.1887 332.691 16.3529C331.698 15.5172 330.499 14.962 329.22 14.745C327.94 14.5279 326.626 14.6569 325.413 15.1185C326.526 8.62239 320.644 2.46894 314.191 1.12688Z" fill="#DEEEF9"/>
<path d="M69.3664 80.1651C69.1653 80.8502 69.0975 81.5675 69.1666 82.2781C67.3728 81.7147 65.4494 81.7147 63.6556 82.2781C62.3582 82.8584 61.2442 83.7823 60.4339 84.9499C59.6236 86.1175 59.148 87.4844 59.0583 88.9028C77.019 89.1597 94.9654 88.9028 112.912 89.2026C112.017 86.8145 110.32 84.8114 108.112 83.5354C105.903 82.2594 103.321 81.7898 100.805 82.2068C100.162 75.5108 91.7102 71.1134 85.6852 73.6405C83.5533 74.6023 81.6902 76.0731 80.2599 77.9236C80.7453 77.3383 74.0065 74.0973 70.5229 78.1806C70.007 78.757 69.6136 79.4321 69.3664 80.1651Z" fill="#A8DDFF"/>
<path d="M557.488 61.0909C557.225 61.5193 556.821 61.8424 556.346 62.0046C555.87 62.0268 555.402 61.8857 555.018 61.6049C553.736 60.8567 552.313 60.3828 550.838 60.2132C549.363 60.0437 547.87 60.1821 546.451 60.6197C545.035 61.1007 543.795 61.9936 542.889 63.184C541.984 64.3745 541.454 65.8082 541.369 67.3014C536.529 65.6167 530.704 70.0712 531.046 75.1824L590.696 74.7827C590.329 73.5388 589.712 72.3828 588.883 71.3852C588.054 70.3876 587.03 69.5692 585.875 68.9801C584.719 68.391 583.456 68.0434 582.161 67.9585C580.867 67.8736 579.569 68.0533 578.347 68.4864C578.375 66.0471 577.64 63.6599 576.244 61.6592C574.848 59.6585 572.861 58.1446 570.562 57.3294C568.263 56.5141 565.766 56.4385 563.421 57.113C561.077 57.7875 559.002 59.1784 557.488 61.0909V61.0909Z" fill="#DEEEF9"/>
<path d="M505.533 78.5233C505.384 79.0325 505.331 79.565 505.376 80.0938C504.042 79.6795 502.613 79.6795 501.278 80.0938C500.314 80.5285 499.486 81.2183 498.885 82.0889C498.284 82.9594 497.931 83.9776 497.866 85.0336C511.215 85.2192 524.564 85.0336 537.914 85.2478C537.248 83.4741 535.987 81.9863 534.347 81.0385C532.707 80.0908 530.788 79.7417 528.919 80.0509C528.434 75.0682 522.152 71.7987 517.669 73.6262C516.085 74.3273 514.698 75.4057 513.628 76.7672C513.985 76.3389 508.974 73.9118 506.39 76.9671C505.992 77.4158 505.7 77.9474 505.533 78.5233V78.5233Z" fill="#A8DDFF"/>
<path d="M565.183 290.368C561.801 286.702 558.232 283.214 554.49 279.917C544.253 270.965 529.676 258.115 515.099 258.33C515.984 259.529 517.283 260.471 518.154 261.756C519.025 263.041 519.582 264.612 518.554 265.711C524.936 267.296 535.772 271.265 536.686 278.889C534.137 279.847 531.402 280.213 528.691 279.959C529.84 283.745 531.902 287.189 534.695 289.99C537.488 292.791 540.928 294.862 544.71 296.021C545.566 297.849 543.739 300.005 541.74 300.304C539.718 300.337 537.746 299.671 536.158 298.42L538.042 304.873C542.625 304.687 547.437 305.273 551.234 307.857C555.032 310.441 557.502 315.353 556.089 319.721C552.691 320.721 550.035 322.077 546.309 321.577C542.154 321.435 539.827 318.579 536.929 316.123C532.089 321.278 531.946 329.301 533.502 336.197C533.709 337.867 534.541 339.397 535.829 340.48C536.664 340.928 537.565 341.237 538.499 341.394C541.312 342.245 544.001 343.464 546.494 345.02C550.178 347.105 556.103 349.018 556.974 353.473C557.243 355.377 556.963 357.318 556.166 359.068C555.37 360.819 554.089 362.305 552.476 363.352C547.008 366.665 543.153 363.052 538.827 360.497C535.572 364.237 535.501 372.204 537.528 376.559C539.069 379.574 541.502 382.042 544.496 383.626C551.149 387.381 561.086 385.982 566.454 391.864C568.007 393.712 568.827 396.067 568.759 398.48C568.691 400.894 567.738 403.198 566.083 404.956C564.322 406.608 562.042 407.597 559.633 407.753C557.224 407.91 554.835 407.224 552.876 405.813C551.954 409.826 551.934 413.994 552.818 418.016C553.702 422.037 555.468 425.813 557.987 429.07C559.513 428.176 561.216 427.626 562.977 427.458C564.738 427.29 566.514 427.509 568.181 428.099C569.832 428.729 571.254 429.843 572.26 431.296C573.266 432.748 573.81 434.47 573.821 436.237C573.726 438 572.957 439.658 571.673 440.87C570.39 442.082 568.69 442.754 566.925 442.747C567.011 452.37 576.419 463.792 581.559 471.73C587.664 481.143 594.339 490.173 601.547 498.771C594.965 463.821 605.83 428.042 605.388 392.478C604.84 354.686 590.548 318.387 565.183 290.368V290.368Z" fill="#4596D1"/>
<path d="M601.518 221.252C597.235 221.78 594.38 225.806 592.952 229.818C591.807 233.146 591.357 236.673 591.631 240.181C591.905 243.69 592.897 247.104 594.545 250.214C596.192 253.323 598.461 256.061 601.21 258.258C603.96 260.454 607.131 262.063 610.527 262.984C614.282 251.391 617.894 238.113 611.741 227.605C609.613 223.936 605.744 220.724 601.518 221.252Z" fill="#73B7B4"/>
<path d="M624.519 257.487C625.173 255.129 626.705 253.11 628.802 251.848C630.288 251.204 631.934 251.03 633.522 251.349C635.109 251.668 636.561 252.465 637.682 253.632C638.771 254.83 639.61 256.231 640.152 257.756C640.693 259.28 640.926 260.897 640.838 262.513C640.64 265.737 639.882 268.901 638.596 271.864C638.137 273.144 637.559 274.377 636.869 275.548C635.781 277.451 634.041 278.896 631.972 279.617C630.936 279.949 629.825 279.971 628.777 279.679C627.73 279.387 626.79 278.795 626.075 277.975C625.326 276.866 624.838 275.602 624.647 274.277C623.577 268.738 622.677 262.855 624.519 257.487Z" fill="#73B7B4"/>
<path d="M584.771 287.912C584.051 288.44 583.436 289.099 582.958 289.854C581.616 292.085 581.153 294.737 581.659 297.292C582.17 299.825 583.331 302.182 585.028 304.131C586.589 305.985 588.488 307.526 590.625 308.671C592.622 309.834 594.936 310.334 597.235 310.099C598.512 307.725 599.266 305.106 599.448 302.417C599.631 299.729 599.236 297.032 598.292 294.508C594.908 284.828 586.713 286.513 584.771 287.912Z" fill="#73B7B4"/>
<path d="M640.895 334.141C639.567 338.784 637.024 342.988 633.528 346.32C632.041 347.842 630.463 349.273 628.802 350.603C625.658 343.676 625.25 335.817 627.66 328.602C628.13 326.961 628.981 325.454 630.144 324.204C630.928 323.439 631.891 322.882 632.945 322.583C633.999 322.284 635.111 322.252 636.181 322.492C637.25 322.732 638.242 323.235 639.068 323.955C639.894 324.675 640.526 325.59 640.909 326.617C641.371 327.995 641.527 329.456 641.366 330.9C641.294 331.991 641.137 333.075 640.895 334.141Z" fill="#73B7B4"/>
<path d="M589.211 314.981C588.244 314.113 587.087 313.484 585.832 313.144C584.577 312.804 583.26 312.764 581.987 313.025C580.721 313.313 579.528 313.859 578.484 314.631C577.439 315.403 576.566 316.382 575.919 317.508C575.098 319.022 574.58 320.68 574.392 322.391C573.904 327.03 575.002 331.698 577.506 335.634C580.011 339.57 583.774 342.541 588.184 344.064C591.51 337.368 594.937 329.972 593.209 322.648C592.842 321.197 592.32 319.79 591.653 318.451C591.05 317.16 590.223 315.985 589.211 314.981V314.981Z" fill="#73B7B4"/>
<path d="M626.36 290.867C627.651 289.963 629.182 289.466 630.758 289.44C634.013 289.568 636.554 292.638 637.14 295.85C637.5 299.72 636.609 303.603 634.598 306.929C629.387 314.739 623.962 311.212 623.319 310.898C622.79 310.594 622.355 310.149 622.063 309.613C620.14 306.554 619.503 302.859 620.293 299.334C621.135 295.829 623.312 292.791 626.36 290.867V290.867Z" fill="#73B7B4"/>
<path d="M605.387 277.518C605.415 275.033 605.019 272.561 604.217 270.208C603.411 267.819 601.781 265.795 599.619 264.497C598.534 263.871 597.303 263.541 596.05 263.541C594.797 263.541 593.566 263.871 592.481 264.497C591.185 265.311 590.246 266.587 589.854 268.067C589.632 269.087 589.615 270.141 589.803 271.168C589.992 272.195 590.383 273.174 590.953 274.049C592.12 275.789 593.567 277.323 595.236 278.589C597.464 280.416 599.991 282.172 602.875 282.301C603.233 282.333 603.594 282.284 603.931 282.158C604.214 281.999 604.461 281.782 604.655 281.521C604.85 281.26 604.987 280.962 605.059 280.645C605.325 279.625 605.436 278.571 605.387 277.518V277.518Z" fill="#73B7B4"/>
<path d="M631.386 370.12C633.391 369.375 635.572 369.24 637.654 369.734C641.937 370.948 644.25 375.831 643.979 380.256C643.707 384.682 640.295 391.05 637.04 394.034C627.617 402.672 621.606 396.261 620.85 395.633C620.262 395.055 619.838 394.33 619.622 393.534C618.073 388.87 618.438 383.782 620.635 379.386C622.869 375.009 626.728 371.683 631.386 370.12V370.12Z" fill="#73B7B4"/>
<path d="M600.476 397.703C602.237 394.383 603.416 390.785 603.96 387.067C604.494 383.312 603.685 379.489 601.675 376.273C600.658 374.688 599.244 373.395 597.574 372.524C595.904 371.653 594.035 371.232 592.153 371.305C589.847 371.504 587.701 372.564 586.142 374.274C585.137 375.496 584.386 376.905 583.932 378.42C583.479 379.935 583.332 381.525 583.501 383.098C583.853 386.239 584.732 389.299 586.099 392.149C587.812 396.147 590.011 400.259 593.809 402.415C594.268 402.714 594.791 402.9 595.336 402.957C595.824 402.944 596.303 402.826 596.742 402.612C597.18 402.398 597.567 402.092 597.878 401.715C598.948 400.521 599.824 399.168 600.476 397.703Z" fill="#73B7B4"/>
<path d="M607.115 246.694C620.562 311.538 617.196 378.744 597.335 441.919" stroke="#95C3B0" stroke-width="1.1" stroke-linecap="round" stroke-linejoin="round"/>
<path d="M613.868 293.094C619.093 290.51 622.677 285.77 625.361 280.588C627.896 275.329 629.578 269.7 630.344 263.912" stroke="#95C3B0" stroke-width="1.1" stroke-linecap="round" stroke-linejoin="round"/>
<path d="M615.124 333.213C604.402 324.761 600.847 317.337 593.423 301.589" stroke="#95C3B0" stroke-width="1.1" stroke-linecap="round" stroke-linejoin="round"/>
<path d="M611.612 378.215C617.751 373.461 621.82 367.35 625.161 360.34C628.331 353.252 630.808 345.875 632.557 338.31" stroke="#95C3B0" stroke-width="1.1" stroke-linecap="round" stroke-linejoin="round"/>
<path d="M612.455 371.676C601.033 361.982 590.311 353.301 585.714 336.882" stroke="#95C3B0" stroke-width="1.1" stroke-linecap="round" stroke-linejoin="round"/>
<path d="M615.167 319.507C621.892 315.495 626.346 307.557 627.46 299.805" stroke="#95C3B0" stroke-width="1.1" stroke-linecap="round" stroke-linejoin="round"/>
<path d="M607.343 404.199C617.523 401.101 625.975 392.078 629.958 382.212" stroke="#95C3B0" stroke-width="1.1" stroke-linecap="round" stroke-linejoin="round"/>
<path d="M613.14 286.77C610.971 286.191 608.925 285.224 607.101 283.914C602.646 280.645 599.962 275.548 597.406 270.637" stroke="#95C3B0" stroke-width="1.1" stroke-linecap="round" stroke-linejoin="round"/>
<path d="M604.517 415.507C601.993 413.226 599.916 410.495 598.392 407.454C594.651 399.973 594.551 391.264 594.523 382.898" stroke="#95C3B0" stroke-width="1.1" stroke-linecap="round" stroke-linejoin="round"/>
<path d="M601.518 316.181C603.622 314.743 606.109 313.972 608.657 313.968C610.7 314.157 612.663 314.854 614.368 315.995C620.921 320.035 624.833 327.345 626.746 334.798C630.258 348.533 630.144 364.166 628.873 378.201C627.355 392.558 624.266 406.705 619.664 420.389C615.381 433.639 611.498 445.817 608.757 459.437C606.073 472.758 605.073 487.435 603.046 500.841C602.471 501.004 601.861 500.989 601.295 500.797C600.729 500.606 600.235 500.248 599.876 499.77C599.185 498.804 598.699 497.706 598.449 496.544C589.268 465.063 584.928 432.411 582.744 399.673C581.659 383.583 581.202 367.279 583.829 351.302C585.87 338.824 589.126 324.961 599.976 317.266C600.452 316.856 600.966 316.495 601.518 316.181Z" fill="#ED1A3B"/>
<path d="M601.989 501.726C594.508 437.165 602.675 347.148 608.057 320.664" stroke="#F2E2CE" stroke-width="1.2" stroke-linecap="round" stroke-linejoin="round"/>
<path d="M600.333 394.277C609.199 388.095 614.382 377.258 620.992 367.15" stroke="#F2E2CE" stroke-width="1.2" stroke-linecap="round" stroke-linejoin="round"/>
<path d="M599.548 411.538C592.418 396.958 588.061 381.181 586.699 365.008" stroke="#F2E2CE" stroke-width="1.2" stroke-linecap="round" stroke-linejoin="round"/>
<path d="M593.109 336.74C594.677 346.913 597.787 356.787 602.332 366.022" stroke="#F2E2CE" stroke-width="1.2" stroke-linecap="round" stroke-linejoin="round"/>
<path d="M603.332 355.086C608.771 353.53 616.181 347.462 619.822 341.394" stroke="#F2E2CE" stroke-width="1.2" stroke-linecap="round" stroke-linejoin="round"/>
<path d="M599.048 448.601C606.744 440.378 610.784 425.758 614.268 414.465" stroke="#F2E2CE" stroke-width="1.2" stroke-linecap="round" stroke-linejoin="round"/>
<path d="M599.305 462.992C593.894 450.143 592.566 441.905 589.754 426.215" stroke="#F2E2CE" stroke-width="1.2" stroke-linecap="round" stroke-linejoin="round"/>
<path d="M242.248 420.875C240.953 423.306 239.786 425.803 238.75 428.356L237.68 430.883C237.253 426.729 237.335 422.539 237.922 418.405C238.445 415.678 239.409 413.054 240.778 410.638C243.034 406.641 246.317 403.343 249.044 399.659C251.771 395.976 254.056 391.607 253.727 387.038C256.94 392.463 255.569 399.502 252.628 405.07C249.687 410.638 245.304 415.378 242.248 420.875Z" fill="#F2E2CE"/>
<path d="M223.702 418.334C225.161 418.916 226.538 419.684 227.8 420.618C231.783 423.473 235.424 427.1 236.752 431.783C232.019 429.449 227.018 427.703 221.861 426.586C217.578 425.658 212.866 425.158 209.368 422.374C205.87 419.59 204.086 415.093 202.544 410.824C207.024 414.002 212.162 416.129 217.578 417.049C219.654 417.288 221.705 417.718 223.702 418.334Z" fill="#4596D1"/>
<path d="M229.142 439.307C235.267 443.833 238.636 451.071 241.691 458.067C239.578 445.303 237.051 432.625 234.239 420.133C230.912 414.093 226.486 408.14 219.962 405.941C218.648 405.484 217.278 405.213 215.978 404.699C212.526 403.207 209.753 400.484 208.197 397.061C206.673 393.653 205.787 389.995 205.585 386.267C206.527 389.265 209.011 391.493 211.524 393.406C215.393 396.261 219.605 398.631 223.217 401.772C227.979 405.942 231.546 411.303 233.553 417.306C232.668 413.451 231.755 409.596 230.827 405.784C229.393 403.522 228.423 400.999 227.971 398.36C227.614 396.118 227.628 393.834 227.186 391.607C226.608 388.655 225.264 385.908 223.288 383.64C221.546 381.641 219.348 380.042 217.806 377.929C214.122 372.775 214.85 365.351 210.953 360.354L217.42 366.45C221.703 370.491 226.072 374.617 228.971 379.757C231.459 384.181 232.762 389.172 232.754 394.248C232.754 398.674 231.755 403.086 232.197 407.469L232.74 409.625C232.837 407.07 233.383 404.552 234.353 402.186C235.252 400.002 236.495 397.989 237.323 395.79C239.921 388.78 237.851 380.828 234.367 374.203C238.379 378.657 242.334 383.383 244.19 389.08C246.046 394.776 245.332 401.672 240.978 405.77C238.65 407.954 235.567 409.153 233.097 411.152C234.667 417.677 236.937 427.971 239.15 438.193C240.492 433.91 244.861 430.926 248.088 427.642C253.104 422.606 256.205 415.975 256.854 408.896C257.85 414.419 257.448 420.103 255.683 425.429C254.785 428.082 253.326 430.511 251.404 432.548C249.482 434.586 247.143 436.185 244.547 437.237C242.773 437.724 241.033 438.325 239.336 439.035C240.664 445.175 241.948 451.242 243.034 456.411C243.398 452.764 244.554 449.241 246.42 446.087C248.287 442.933 250.82 440.224 253.841 438.15C260.28 433.796 268.704 432.439 274.172 426.986C272.21 433.035 268.234 438.23 262.907 441.705C261.337 442.719 259.666 443.576 258.053 444.561C252.452 447.755 247.392 451.818 243.062 456.596C244.633 464.092 245.775 469.66 245.918 470.716C250.201 497.843 250.529 502.126 247.103 501.812C245.889 487.364 244.019 472.872 241.634 458.481C236.063 455.278 230.75 451.646 225.744 447.616L218.12 441.805C212.752 437.708 207.241 433.453 203.843 427.528C211.281 433.282 221.661 433.796 229.142 439.307Z" fill="#4596D1"/>
<path d="M239.264 339.838C242.603 344.082 245.715 348.5 248.587 353.073L251.543 357.57C250.601 349.446 249.644 341.208 246.731 333.556C244.809 328.475 242.059 323.748 238.593 319.564C232.883 312.626 225.387 307.386 218.82 301.232C212.252 295.079 206.384 287.426 205.399 278.489C201.116 290.068 206.184 303.203 213.808 312.925C221.432 322.648 231.483 330.258 239.264 339.838Z" fill="#ED1A3B"/>
<path d="M274.186 328.473C271.562 330.094 269.162 332.053 267.048 334.298C260.337 341.08 254.569 349.475 253.656 358.969C261.999 352.812 271.072 347.709 280.668 343.778C288.735 340.48 297.515 337.768 303.34 331.3C309.165 324.833 311.021 315.41 312.506 306.643C304.963 314.333 295.784 320.223 285.651 323.876C281.693 325.045 277.855 326.584 274.186 328.473V328.473Z" fill="#ED1A3B"/>
<path d="M270.96 370.905C260.709 381.756 256.683 396.904 253.242 411.466C252.913 386.096 253.385 360.74 254.484 335.64C258.767 322.791 265.277 309.813 277.056 303.303C279.455 301.989 282.01 300.961 284.337 299.534C290.548 295.707 294.703 289.097 296.701 282.073C298.468 274.976 298.908 267.614 298.001 260.357C297.23 266.453 293.203 271.607 288.977 276.062C282.524 282.886 275.214 288.911 269.318 296.264C261.55 306 256.518 317.63 254.741 329.958C255.112 322.191 255.536 314.453 256.012 306.743C257.967 301.886 258.938 296.688 258.867 291.453C258.796 286.998 257.982 282.587 258.053 278.146C258.146 272.249 259.785 266.479 262.807 261.414C265.477 256.945 269.189 253.119 271.374 248.407C276.685 237.185 272.701 223.094 278.512 212.1L268.147 226.106C261.265 235.401 254.284 244.881 250.472 255.803C247.196 265.213 246.409 275.31 248.188 285.114C249.73 293.68 253.185 301.804 253.898 310.413C253.813 311.698 253.713 313.154 253.613 314.767C252.531 309.867 250.598 305.194 247.902 300.961C245.404 297.078 242.305 293.623 239.964 289.654C232.497 277.018 233.739 260.957 238.165 246.965C231.983 256.959 225.972 267.438 224.373 279.074C222.774 290.71 226.515 303.802 236.366 310.199C241.592 313.597 247.959 314.839 253.427 317.851C252.671 330.986 251.843 351.659 251.114 372.104C247.045 364.18 237.737 360.026 230.213 354.829C218.785 346.849 210.503 335.128 206.798 321.692C207.112 332.642 209.24 343.75 214.779 353.201C220.319 362.653 229.585 370.334 240.378 372.119C243.933 372.732 247.631 372.732 251.057 373.803C250.629 386.11 250.244 398.26 249.944 408.611C247.975 401.695 244.519 395.292 239.819 389.849C235.119 384.407 229.287 380.056 222.731 377.101C208.797 370.948 192.107 371.39 179.629 362.596C185.494 373.595 194.952 382.252 206.427 387.124C209.811 388.551 213.323 389.622 216.792 390.85C228.703 395.085 239.871 401.17 249.887 408.882C249.444 423.902 249.187 435.052 249.23 437.151C250.358 490.847 251.2 499.399 257.796 497.6C255.112 469.289 253.699 440.663 253.313 412.052C263.164 404.185 271.716 394.848 280.226 385.553L292.918 371.69C301.87 361.925 311.021 351.788 315.419 339.295C303.355 353.03 283.524 357.613 270.96 370.905Z" fill="#ED1A3B"/>
<path d="M456.277 406.498C457.768 406.384 459.259 406.717 460.56 407.454C461.568 408.151 462.379 409.095 462.916 410.196C465.086 414.207 464.943 419.119 463.715 423.516C462.745 426.971 461.674 429.57 458.147 431.069H460.26C460.988 431.069 458.176 436.565 457.976 436.922C456.034 440.406 453.836 446.088 449.581 446.988C447.306 447.466 445.141 448.366 443.199 449.643C445.395 449.427 447.604 449.36 449.809 449.443C448.979 450.575 448.083 451.658 447.125 452.684C445.698 454.112 444.056 453.827 442.085 453.926L444.941 455.468C444.327 455.14 435.732 464.492 434.804 465.334C428.78 470.607 423.06 476.217 417.672 482.138C412.36 488.192 403.566 502.126 402.495 501.698C402.16 501.615 401.857 501.436 401.623 501.182C401.39 500.928 401.236 500.611 401.182 500.27C401.103 499.563 401.176 498.848 401.396 498.171C403.967 487.802 407.264 477.626 411.261 467.718C412.246 465.248 422.84 440.749 423.168 440.906C423.497 441.063 423.411 441.348 423.397 441.605C423.371 442.596 423.688 443.564 424.296 444.347C425.396 439.549 426.138 435.238 428.679 431.069C431.104 426.961 433.808 423.026 436.774 419.29C437.554 418.241 438.449 417.283 439.444 416.435C439.624 417.764 439.667 419.108 439.573 420.447C439.562 420.581 439.592 420.715 439.658 420.832C439.915 421.146 440.372 420.689 440.501 420.304C441.143 418.448 441.372 416.349 442.1 414.593C442.595 413.169 443.617 411.989 444.955 411.295C448.139 408.982 451.009 407.097 455.106 406.712C455.449 406.598 455.834 406.512 456.277 406.498Z" fill="#73B7B4"/>
<path d="M402.281 500.827C417.514 465.477 447.654 422.688 458.247 410.681" stroke="#97D8D6" stroke-width="0.71" stroke-linecap="round" stroke-linejoin="round"/>
<path d="M432.534 446.231C438.916 445.674 444.77 441.648 451.094 438.436" stroke="#97D8D6" stroke-width="0.71" stroke-linecap="round" stroke-linejoin="round"/>
<path d="M427.037 454.855C427.677 445.268 430.098 435.885 434.176 427.185" stroke="#97D8D6" stroke-width="0.71" stroke-linecap="round" stroke-linejoin="round"/>
<path d="M445.826 414.564C443.628 420.242 442.309 426.221 441.914 432.297" stroke="#97D8D6" stroke-width="0.71" stroke-linecap="round" stroke-linejoin="round"/>
<path d="M445.669 427.014C448.924 427.814 454.478 426.871 458.176 424.858" stroke="#97D8D6" stroke-width="0.71" stroke-linecap="round" stroke-linejoin="round"/>
<path d="M415.801 473.7C422.183 471.744 428.651 465.434 433.705 460.68" stroke="#97D8D6" stroke-width="0.71" stroke-linecap="round" stroke-linejoin="round"/>
<path d="M411.704 481.196C412.732 473.001 414.473 468.346 417.672 459.509" stroke="#97D8D6" stroke-width="0.71" stroke-linecap="round" stroke-linejoin="round"/>
<path d="M445.126 247.607C448.316 246.174 451.862 245.732 455.306 246.337C458.067 247.075 460.596 248.499 462.659 250.477C467.813 255.103 475.508 264.412 468.612 270.465C466.556 272.264 464.058 273.935 463.401 276.576C466.928 275.234 470.654 273.849 474.366 274.506C477.407 283.786 475.123 297.049 473.895 306.558C472.423 317.383 470.2 328.093 467.242 338.61C465.086 346.462 463.558 351.902 455.677 355.471C452.065 357.113 448.153 358.455 445.341 361.182C447.297 359.226 456.477 359.141 459.104 359.326C458.219 370.905 449.795 383.597 444.47 393.591C440.544 400.987 436.617 408.382 432.862 415.864C430.978 419.633 429.136 423.416 427.351 427.285C425.781 430.669 424.81 434.31 421.641 436.48C419.476 437.947 417.634 439.842 416.23 442.048C417.862 441.413 419.525 440.86 421.212 440.392C421.798 442.491 420.313 443.975 419.485 445.789C418.4 448.187 417.643 450.8 416.801 453.298C415.045 458.524 413.446 463.806 411.904 469.103C410.362 474.4 408.848 479.782 407.278 485.122C405.85 489.933 404.936 496.073 402.481 500.456C402.341 500.819 402.094 501.132 401.773 501.353C401.452 501.573 401.071 501.691 400.682 501.691C400.292 501.691 399.912 501.573 399.591 501.353C399.269 501.132 399.023 500.819 398.883 500.456C398.069 499.028 397.241 493.56 397.055 491.889C392.244 446.874 394.271 401.444 399.225 356.414C400.568 344.135 402.195 331.871 404.636 319.764C405.893 313.582 407.349 307.429 409.105 301.375C409.833 298.834 412.846 285.756 415.23 294.022C415.687 295.579 416.13 297.149 416.586 298.705C416.272 293.166 416.187 287.626 416.329 282.087C416.308 281.325 416.404 280.564 416.615 279.831C416.814 279.295 417.073 278.782 417.386 278.303C420.87 272.478 423.097 266.325 427.494 260.9C429.52 258.35 431.802 256.016 434.304 253.932C436.731 251.933 440.572 250.706 442.685 248.607C443.427 248.293 444.284 247.936 445.126 247.607Z" fill="#F8981D"/>
<path d="M400.596 499.913C406.136 410.338 439.144 290.039 452.865 255.289" stroke="#DE8513" stroke-width="1.65" stroke-linecap="round" stroke-linejoin="round"/>
<path d="M424.525 353.473C438.074 347.205 447.711 333.784 459.132 321.677" stroke="#DE8513" stroke-width="1.65" stroke-linecap="round" stroke-linejoin="round"/>
<path d="M419.256 376.73C413.123 355.18 411.056 332.677 413.16 310.37" stroke="#DE8513" stroke-width="1.65" stroke-linecap="round" stroke-linejoin="round"/>
<path d="M428.694 273.506C428.051 287.355 430.464 302.16 434.119 315.538" stroke="#DE8513" stroke-width="1.65" stroke-linecap="round" stroke-linejoin="round"/>
<path d="M438.174 300.947C445.94 300.147 457.391 293.708 463.872 286.356" stroke="#DE8513" stroke-width="1.65" stroke-linecap="round" stroke-linejoin="round"/>
<path d="M409.505 426.971C421.955 417.663 431.006 398.774 438.502 384.283" stroke="#DE8513" stroke-width="1.65" stroke-linecap="round" stroke-linejoin="round"/>
<path d="M406.407 446.574C402.124 427.756 402.381 416.278 402.381 394.262" stroke="#A7D9CE" stroke-width="1.65" stroke-linecap="round" stroke-linejoin="round"/>
<path d="M375.711 283.814C373.065 282.404 370.055 281.822 367.073 282.144C364.666 282.622 362.418 283.697 360.534 285.271C353.396 290.882 349.67 300.005 348.399 309.042C347.956 312.097 347.685 315.181 347.542 318.265C347.542 319.793 346.115 325.175 346.571 326.317C347.428 328.602 356.837 330.858 359.621 333.085C355.894 331.757 352.011 329.373 348.313 330.743C348.064 330.81 347.84 330.949 347.671 331.143C347.504 331.427 347.434 331.758 347.471 332.085C347.557 341.423 349.67 351.288 351.54 360.468C352.554 365.465 354.567 370.462 355.209 375.516L360.549 378.772C362.024 379.494 363.266 380.617 364.132 382.012C363.204 380.128 358.421 379.228 356.622 379.271C356.294 383.397 359.621 388.794 361.063 392.592C363.161 398.131 365.446 403.585 367.859 408.982C370.271 414.379 372.042 421.546 375.425 426.186C378.024 429.755 382.65 430.555 384.306 435.495L377.253 431.04C379.309 432.354 380.422 438.364 381.236 440.52C382.873 444.832 384.396 449.177 385.805 453.555C390.702 468.903 395.685 501.427 397.955 501.598C398.654 501.707 399.37 501.605 400.011 501.305C400.652 501.005 401.189 500.52 401.553 499.913C402.253 498.684 402.691 497.323 402.838 495.916C406.153 476.629 408.203 457.147 408.977 437.593C409.405 427.676 409.576 417.743 409.491 407.797C409.491 402.971 409.405 398.131 409.262 393.306C409.262 392.249 407.392 383.454 407.963 382.941C405.585 385.083 403.445 387.477 401.581 390.079C402.512 385.434 404.175 380.967 406.507 376.844C410.533 369.706 407.578 358.798 406.635 350.945C405.539 341.477 403.735 332.104 401.239 322.905C400.667 320.878 399.811 318.979 399.354 316.937C398.94 316.124 397.712 316.837 397.198 317.594C395.479 320.161 394.192 322.992 393.386 325.975C393.595 321.203 394.559 316.495 396.242 312.026C396.721 311.057 396.937 309.979 396.87 308.899C395.371 299.848 385.448 289.168 377.81 284.899C377.11 284.557 376.425 284.2 375.711 283.814Z" fill="#4596D1"/>
<path d="M398.926 500.199C399.34 423.102 378.381 320.507 368.601 290.011" stroke="#97D8D6" stroke-width="1.42" stroke-linecap="round" stroke-linejoin="round"/>
<path d="M387.261 375.759C376.025 369.606 368.501 357.513 359.406 346.52" stroke="#97D8D6" stroke-width="1.42" stroke-linecap="round" stroke-linejoin="round"/>
<path d="M390.445 395.976C396.935 377.872 399.999 358.72 399.482 339.495" stroke="#97D8D6" stroke-width="1.42" stroke-linecap="round" stroke-linejoin="round"/>
<path d="M388.304 307C388.061 318.908 385.134 331.457 381.236 342.693" stroke="#97D8D6" stroke-width="1.42" stroke-linecap="round" stroke-linejoin="round"/>
<path d="M378.609 329.958C371.999 328.83 362.547 322.648 357.393 315.981" stroke="#97D8D6" stroke-width="1.42" stroke-linecap="round" stroke-linejoin="round"/>
<path d="M395.899 439.578C385.762 430.869 379.18 414.179 373.469 401.344" stroke="#97D8D6" stroke-width="1.42" stroke-linecap="round" stroke-linejoin="round"/>
<path d="M397.427 456.568C402.124 440.692 402.609 430.869 403.88 411.98" stroke="#97D8D6" stroke-width="1.42" stroke-linecap="round" stroke-linejoin="round"/>
<path d="M88.3835 410.581C86.1813 412.74 84.094 415.013 82.1301 417.391C81.4591 418.162 80.7881 418.948 80.1313 419.733C81.0702 415.147 82.5762 410.697 84.6144 406.484C86.0806 403.75 87.9803 401.271 90.2396 399.145C93.9945 395.647 98.6203 393.234 102.789 390.222C106.958 387.209 110.841 383.326 112.055 378.329C113.626 385.182 109.799 392.321 104.774 397.218C99.7481 402.115 93.509 405.741 88.3835 410.581Z" fill="#A7D9CE"/>
<path d="M69.4519 401.586C70.8126 402.704 72.0262 403.99 73.0641 405.413C76.3621 409.696 79.0033 414.921 78.7749 420.361C74.5092 416.277 69.7573 412.734 64.6263 409.81C60.3431 407.354 55.5317 405.184 52.7191 401.087C49.9065 396.989 49.5353 391.535 49.3354 386.453C53.0366 391.361 57.8004 395.368 63.2699 398.174C65.4344 399.113 67.5044 400.255 69.4519 401.586Z" fill="#A7D9CE"/>
<path d="M68.1672 425.829C73.1927 432.725 74.3349 441.534 75.3058 450.1C77.3474 435.823 78.9321 421.375 80.16 407.083C78.6609 399.516 75.8768 391.678 69.7519 387.095C68.4955 386.167 67.1249 385.396 65.9114 384.425C62.7381 381.658 60.7034 377.812 60.2005 373.632C59.7287 369.483 60.019 365.283 61.0572 361.239C61.0572 364.737 62.956 367.964 65.0119 370.791C68.1672 375.074 71.865 379.1 74.6633 383.64C78.3229 389.728 80.2942 396.682 80.3741 403.785C80.7358 399.359 81.0642 394.948 81.3593 390.55C80.6139 387.656 80.4489 384.643 80.8738 381.684C81.2308 379.171 82.0303 376.73 82.3015 374.203C82.6967 370.86 82.2043 367.472 80.8738 364.38C79.6888 361.653 77.8756 359.212 76.9619 356.385C74.7632 349.646 78.0612 341.965 75.5342 335.312L80.3741 344.007C83.5865 349.718 86.856 355.657 88.2123 362.11C89.3666 367.679 89.0716 373.45 87.3557 378.872C85.8423 383.583 83.3009 387.952 82.273 392.778C82.273 393.52 82.1873 394.348 82.1302 395.276C83.1099 392.573 84.56 390.064 86.4134 387.866C88.1123 385.853 90.1254 384.126 91.7387 382.055C96.8928 375.445 97.3639 366.265 95.8934 358.013C98.6632 364.109 101.29 370.505 101.347 377.201C101.404 383.897 98.3062 391.05 92.267 393.948C89.0546 395.49 85.3569 395.719 82.0446 397.032C81.502 404.528 80.4598 416.292 79.3605 427.942C82.2159 423.759 87.8268 422.088 92.4669 419.69C99.5342 416.019 105.091 409.987 108.172 402.643C107.38 408.878 105.033 414.814 101.347 419.904C99.4887 422.432 97.1073 424.53 94.3652 426.055C91.6232 427.58 88.5848 428.496 85.4568 428.742C83.3994 428.656 81.3385 428.713 79.2891 428.913C78.6323 435.909 77.9613 442.819 77.3759 448.701C79.0019 444.943 81.4264 441.584 84.4811 438.857C87.5358 436.13 91.1475 434.101 95.0653 432.911C103.417 430.441 112.84 431.897 120.55 427.856C116.411 433.656 110.41 437.864 103.546 439.778C101.533 440.32 99.4627 440.677 97.4068 441.12C90.3523 442.641 83.5824 445.267 77.3474 448.901C76.4907 457.467 75.8197 463.763 75.6484 464.963C71.0654 495.273 69.9375 500.056 66.3968 498.557C69.9946 482.724 72.8929 466.619 75.2058 450.443C70.3397 445.139 65.8955 439.464 61.9138 433.467L55.7461 424.687C51.4629 418.505 46.9513 412.094 45.3809 404.699C51.1488 413.351 62.0423 417.406 68.1672 425.829Z" fill="#ED1A3B"/>
<path d="M13.2715 347.162C15.7415 348.119 18.3542 347.79 20.8527 348.59C26.5635 350.317 30.8467 358.312 30.0757 365.722C28.2327 366.992 26.0072 367.584 23.777 367.399C21.5469 367.215 19.4493 366.264 17.8402 364.709C17.5663 373.984 18.5266 383.255 20.6956 392.278C21.7888 391.187 23.0964 390.334 24.5359 389.774C25.9754 389.214 27.5154 388.959 29.0585 389.025C30.6016 389.091 32.1143 389.476 33.501 390.156C34.8876 390.837 36.118 391.797 37.1144 392.977C41.7116 398.117 42.6539 408.183 38.642 413.551C34.6301 418.919 26.2923 417.42 23.5796 410.395C27.3488 446.317 43.4677 480.539 66.6395 501.769C70.5657 463.221 69.7233 422.831 59.2868 385.425C48.8502 348.019 27.9627 313.796 0.00805664 297.335C6.78366 304.709 11.2507 313.906 12.8575 323.79C9.31675 325.775 4.50536 322.605 3.4774 317.623C3.20614 329.03 4.71951 343.878 13.2715 347.162Z" fill="#4596D1"/>
<path d="M60.0434 209.43C65.5401 210.116 69.3664 215.37 71.151 220.624C72.6345 224.958 73.2155 229.55 72.858 234.118C72.5006 238.685 71.2123 243.131 69.0725 247.182C66.9327 251.233 63.9867 254.803 60.4156 257.673C56.8446 260.542 52.724 262.651 48.3076 263.869C43.3962 248.75 38.6848 231.432 46.7228 217.725C49.4783 212.928 54.5181 208.731 60.0434 209.43Z" fill="#73B7B4"/>
<path d="M30.0471 256.688C29.158 253.595 27.1132 250.962 24.3363 249.335C22.4021 248.493 20.2562 248.265 18.1882 248.681C16.1202 249.097 14.2297 250.138 12.7718 251.662C11.3513 253.22 10.255 255.044 9.54664 257.03C8.83826 259.015 8.532 261.122 8.64569 263.227C8.87491 267.432 9.84142 271.563 11.5011 275.434C12.113 277.095 12.8678 278.7 13.7569 280.231C15.1741 282.713 17.4406 284.599 20.1388 285.542C21.509 286.005 22.9867 286.048 24.3813 285.663C25.7758 285.279 27.0232 284.486 27.9627 283.386C28.9198 281.944 29.5395 280.304 29.7759 278.589C31.2607 271.35 32.4314 263.684 30.0471 256.688Z" fill="#73B7B4"/>
<path d="M81.9731 296.364C82.9126 297.044 83.7083 297.903 84.3146 298.891C86.0743 301.796 86.6853 305.253 86.0278 308.585C85.3568 311.889 83.8418 314.963 81.6305 317.508C79.5925 319.926 77.1114 321.932 74.3206 323.419C71.7402 324.947 68.7378 325.608 65.7543 325.304C62.1707 319.307 62.1279 311.583 64.3266 304.973C68.6525 292.381 79.3604 294.522 81.9731 296.364Z" fill="#73B7B4"/>
<path d="M8.68861 356.628C10.1163 362.724 13.9283 368.049 18.2829 372.533C20.2241 374.561 22.2887 376.469 24.4648 378.243C28.5425 369.2 29.0525 358.95 25.8926 349.546C25.2777 347.417 24.1727 345.461 22.6659 343.835C21.6447 342.831 20.388 342.099 19.0106 341.705C17.6333 341.312 16.1793 341.271 14.7817 341.584C13.3841 341.898 12.0875 342.558 11.0106 343.502C9.9337 344.447 9.11081 345.646 8.61723 346.991C8.03961 348.762 7.83543 350.633 8.01759 352.487C8.13043 353.883 8.35482 355.268 8.68861 356.628V356.628Z" fill="#73B7B4"/>
<path d="M76.091 331.657C77.3501 330.525 78.8577 329.705 80.4921 329.264C82.1266 328.823 83.8419 328.772 85.4996 329.116C87.1521 329.484 88.7093 330.194 90.0714 331.2C91.4335 332.205 92.5704 333.484 93.4091 334.955C94.4864 336.926 95.1655 339.09 95.4079 341.323C96.0402 347.371 94.6084 353.456 91.3451 358.588C88.0818 363.721 83.1789 367.598 77.433 369.591C73.0785 360.854 68.6098 351.202 70.8798 341.708C71.3418 339.809 72.0221 337.969 72.9072 336.226C73.6835 334.523 74.7622 332.975 76.091 331.657Z" fill="#73B7B4"/>
<path d="M27.6486 300.205C25.9672 299.048 23.9782 298.422 21.9377 298.406C17.6546 298.563 14.3851 302.575 13.6285 306.758C12.8718 310.941 14.585 317.665 16.9407 321.206C23.7367 331.4 30.8039 326.817 31.6462 326.389C32.3328 325.993 32.8962 325.415 33.2738 324.718C35.7914 320.728 36.6232 315.901 35.5867 311.298C34.4968 306.703 31.6462 302.719 27.6486 300.205V300.205Z" fill="#73B7B4"/>
<path d="M54.9894 282.815C54.9421 279.567 55.459 276.335 56.5171 273.264C57.5914 270.181 59.7135 267.574 62.5135 265.897C63.9253 265.093 65.5219 264.67 67.1464 264.67C68.7709 264.67 70.3675 265.093 71.7794 265.897C73.4683 266.963 74.696 268.624 75.2201 270.551C75.5098 271.88 75.5328 273.254 75.2877 274.592C75.0426 275.93 74.5344 277.206 73.7924 278.346C72.2871 280.619 70.4095 282.622 68.2386 284.271C65.3832 286.656 62.0281 288.94 58.2446 289.111C57.7608 289.158 57.2728 289.094 56.8169 288.926C56.4549 288.718 56.1406 288.437 55.8946 288.1C55.6486 287.763 55.4764 287.378 55.3892 286.97C55.044 285.613 54.9091 284.212 54.9894 282.815V282.815Z" fill="#73B7B4"/>
<path d="M21.0955 403.557C18.4785 402.584 15.6328 402.406 12.9147 403.043C7.37517 404.642 4.34842 411.009 4.67679 416.763C5.00517 422.517 9.40253 430.869 13.6857 434.752C25.964 446.003 33.8022 437.608 34.7873 436.823C35.5592 436.068 36.1161 435.122 36.4006 434.081C38.4186 428.002 37.9515 421.372 35.1014 415.635C32.1864 409.937 27.1606 405.602 21.0955 403.557V403.557Z" fill="#73B7B4"/>
<path d="M61.3997 439.535C59.0948 435.206 57.5541 430.511 56.8453 425.658C56.1561 420.76 57.2125 415.777 59.8292 411.58C61.1607 409.528 63.0035 407.858 65.1764 406.734C67.3493 405.61 69.7774 405.071 72.2218 405.17C75.2286 405.426 78.0279 406.808 80.0599 409.039C81.3686 410.63 82.3479 412.466 82.9411 414.439C83.5342 416.412 83.7293 418.483 83.515 420.532C83.0504 424.613 81.9118 428.589 80.1456 432.297C77.9041 437.522 75.0344 442.876 70.1516 445.689C69.7455 445.985 69.2841 446.196 68.7948 446.311C68.3054 446.425 67.7981 446.44 67.3028 446.355C66.8075 446.27 66.3344 446.086 65.9114 445.815C65.4884 445.543 65.1243 445.19 64.8405 444.775C63.4272 443.218 62.2662 441.45 61.3997 439.535V439.535Z" fill="#73B7B4"/>
<path d="M52.7334 242.582C35.1981 327.144 39.5871 414.785 65.4829 497.172" stroke="#95C3B0" stroke-width="1.44" stroke-linecap="round" stroke-linejoin="round"/>
<path d="M43.9389 303.103C37.1287 299.748 32.4315 293.551 28.9479 286.798C25.6393 279.946 23.4418 272.611 22.4375 265.068" stroke="#95C3B0" stroke-width="1.44" stroke-linecap="round" stroke-linejoin="round"/>
<path d="M42.2399 355.428C56.2315 344.421 60.8002 334.741 70.5372 314.196" stroke="#95C3B0" stroke-width="1.44" stroke-linecap="round" stroke-linejoin="round"/>
<path d="M46.8657 414.108C38.8705 407.911 33.5593 399.945 29.2048 390.807C25.0585 381.566 21.8306 371.94 19.5677 362.067" stroke="#95C3B0" stroke-width="1.44" stroke-linecap="round" stroke-linejoin="round"/>
<path d="M45.7664 405.584C60.6003 392.935 74.649 381.627 80.6454 360.211" stroke="#95C3B0" stroke-width="1.44" stroke-linecap="round" stroke-linejoin="round"/>
<path d="M42.2398 337.482C33.4593 332.257 27.6485 321.906 26.1923 311.783" stroke="#95C3B0" stroke-width="1.44" stroke-linecap="round" stroke-linejoin="round"/>
<path d="M52.448 448.001C39.1702 443.947 28.1768 432.182 22.9371 419.319" stroke="#95C3B0" stroke-width="1.44" stroke-linecap="round" stroke-linejoin="round"/>
<path d="M44.881 294.865C47.7138 294.106 50.3812 292.828 52.7477 291.096C58.5585 286.813 62.0707 280.202 65.3972 273.792" stroke="#95C3B0" stroke-width="1.44" stroke-linecap="round" stroke-linejoin="round"/>
<path d="M56.1315 462.736C59.4136 459.774 62.1195 456.231 64.1124 452.285C68.9809 442.519 69.1237 431.169 69.1522 420.261" stroke="#95C3B0" stroke-width="1.44" stroke-linecap="round" stroke-linejoin="round"/>
<path d="M183.983 488.477C178.958 488.677 174.561 493.231 169.564 492.646C168.071 492.394 166.626 491.913 165.28 491.218C164.945 493.102 164.811 495.017 164.881 496.929C164.879 497.168 164.923 497.406 165.009 497.629C165.12 497.801 165.266 497.948 165.439 498.059C165.611 498.17 165.806 498.242 166.009 498.271C167.718 498.658 169.467 498.841 171.22 498.814C171.879 498.935 172.559 498.89 173.197 498.684C173.835 498.477 174.412 498.114 174.875 497.629C179.786 501.298 186.054 502.055 192.007 502.012C194.362 502.145 196.712 501.689 198.846 500.684C199.524 500.375 200.095 499.873 200.489 499.241C200.883 498.608 201.081 497.874 201.059 497.129C200.967 496.682 200.778 496.26 200.507 495.893C200.236 495.526 199.888 495.222 199.488 495.002C198.702 494.602 197.867 494.304 197.004 494.117C193.233 493.109 189.66 491.468 186.439 489.262C186.122 489.022 185.777 488.821 185.411 488.663C184.954 488.499 184.467 488.435 183.983 488.477V488.477Z" fill="#20315B"/>
<path d="M121.421 490.062C126.123 490.062 130.82 490.024 135.512 489.948C135.712 494.588 140.024 498.3 139.71 502.94C139.696 503.246 139.624 503.547 139.496 503.825C139.269 504.128 138.97 504.37 138.626 504.527C138.281 504.684 137.903 504.752 137.526 504.725C134.227 504.958 130.911 504.733 127.674 504.054C125.404 503.582 122.949 502.697 121.849 500.527C121.467 499.702 121.226 498.819 121.135 497.914C120.78 495.3 120.877 492.644 121.421 490.062Z" fill="#20315B"/>
<path d="M120.764 480.382C120.864 480.953 120.978 481.538 121.093 482.124C121.377 483.215 121.521 484.337 121.521 485.465C121.277 486.854 121.196 488.268 121.278 489.676C121.293 489.802 121.342 489.921 121.421 490.019C121.494 490.084 121.581 490.132 121.674 490.159C121.768 490.186 121.867 490.192 121.963 490.176C124.933 490.176 127.888 490.362 130.844 490.433C132.5 490.433 134.185 490.29 135.855 490.29C135.818 489.176 135.934 488.061 136.198 486.978C136.383 486.264 136.712 485.55 136.94 484.894C137.783 482.295 137.283 479.454 137.397 476.699C137.511 473.629 138.425 470.674 138.496 467.604C138.568 464.534 137.383 461.822 137.226 458.909C137.164 456.69 137.331 454.47 137.725 452.285C139.153 442.448 140.067 432.168 142.894 422.631C143.85 419.419 145.05 416.292 146.249 413.18C148.552 407.183 150.846 401.196 153.13 395.219C153.402 394.505 153.787 394.448 154.201 394.776C155.329 395.704 156.757 399.488 157.057 400.187C160.843 408.902 162.968 418.247 163.324 427.742C163.553 434.024 163.01 440.335 163.596 446.602C163.967 450.614 164.809 454.555 165.323 458.567C165.806 462.503 166.04 466.465 166.023 470.431C166.1 472.159 166.005 473.89 165.737 475.599C165.199 477.368 164.92 479.205 164.909 481.053C165.08 482.895 165.809 484.48 165.437 486.336C165.152 487.763 164.509 489.762 164.966 491.161C165.195 491.904 166.023 492.146 166.737 492.289C168.017 492.608 169.329 492.785 170.649 492.817C173.378 492.578 176.026 491.761 178.415 490.419C180.811 489.173 183.482 488.549 186.182 488.606C185.34 488.606 183.998 483.48 183.812 482.695C183.279 480.598 183.105 478.425 183.298 476.27C183.726 471.188 183.584 465.976 183.726 460.879C184.397 437.008 185.068 413.151 184.754 389.28C184.754 387.666 185.225 382.698 183.798 381.67C183.365 381.42 182.869 381.301 182.37 381.327C174.689 381.042 166.994 381.327 159.312 381.027L155.672 380.842C151.148 380.595 146.651 379.988 142.223 379.029C140.041 378.691 137.918 378.052 135.912 377.13C134.028 376.059 132.2 374.374 130.401 373.089C130.073 372.832 129.745 372.575 129.402 372.347C127.846 374.303 128.203 377.073 127.103 379.257C126.665 379.954 126.265 380.673 125.904 381.413C125.133 383.397 126.104 385.596 126.718 387.638C127.563 390.497 127.715 393.517 127.16 396.447C126.889 397.874 126.461 399.174 126.247 400.573C126.056 402.408 126.009 404.255 126.104 406.098C126.188 411.081 125.709 416.057 124.676 420.932C123.691 425.472 123.662 430.455 123.034 435.124C122.806 435.124 121.521 446.017 121.378 447.045C120.85 451.014 120.364 454.997 120.05 458.995C119.344 466.124 119.584 473.316 120.764 480.382V480.382Z" fill="#BCBAB1"/>
<path d="M120.764 480.382C120.864 480.953 120.978 481.538 121.093 482.124C121.377 483.215 121.521 484.337 121.521 485.465C121.277 486.854 121.196 488.268 121.278 489.676C121.293 489.802 121.342 489.921 121.421 490.019C121.494 490.084 121.581 490.132 121.674 490.159C121.768 490.186 121.867 490.192 121.963 490.176C124.933 490.176 127.888 490.362 130.844 490.433C132.5 490.433 134.185 490.29 135.855 490.29C135.818 489.176 135.933 488.061 136.198 486.978C136.383 486.264 136.712 485.55 136.94 484.894C137.783 482.295 137.283 479.454 137.397 476.699C137.511 473.629 138.425 470.674 138.496 467.604C138.568 464.534 137.383 461.822 137.226 458.909C137.164 456.69 137.331 454.47 137.725 452.285C139.153 442.448 140.067 432.168 142.894 422.631C143.85 419.419 145.05 416.292 146.249 413.179L151.86 398.531C152.187 397.414 152.593 396.322 153.073 395.262C153.587 394.391 154.501 393.677 155.058 392.863C157.253 389.788 158.651 386.217 159.127 382.469C159.284 381.327 159.441 381.042 158.299 381.042L155.657 380.899C151.134 380.652 146.636 380.045 142.208 379.086C140.027 378.748 137.903 378.109 135.898 377.187C134.013 376.116 132.186 374.431 130.387 373.146C130.059 372.889 129.73 372.632 129.388 372.404C127.831 374.36 128.188 377.13 127.089 379.314C126.651 380.011 126.25 380.73 125.89 381.47C125.119 383.454 126.09 385.653 126.703 387.695C127.549 390.554 127.701 393.574 127.146 396.504C126.875 397.932 126.446 399.231 126.232 400.63C126.042 402.465 125.994 404.312 126.09 406.155C126.173 411.138 125.694 416.114 124.662 420.989C123.677 425.529 123.648 430.512 123.02 435.181C122.792 435.181 121.507 446.074 121.364 447.102C120.836 451.071 120.35 455.054 120.036 459.052C119.339 466.163 119.584 473.335 120.764 480.382Z" fill="#D0CEC2"/>
<path d="M129.116 371.333C129.116 370.919 129.031 370.491 128.973 370.02C128.918 368.834 128.716 367.659 128.374 366.522C127.683 367.338 126.869 368.042 125.961 368.606L123.991 369.905C124.013 370.239 124.101 370.565 124.251 370.864C124.4 371.163 124.608 371.43 124.862 371.647L127.046 373.332C127.274 373.503 128.588 374.403 128.474 374.76C128.775 374.088 129.149 373.452 129.587 372.861C129.595 372.828 129.595 372.794 129.587 372.761C129.598 372.736 129.603 372.709 129.603 372.682C129.603 372.655 129.598 372.629 129.587 372.604C129.341 372.219 129.18 371.786 129.116 371.333V371.333Z" fill="#BA6F4D"/>
<path d="M221.804 271.479C219.591 268.481 217.306 265.54 215.193 262.47C215.077 262.314 214.976 262.147 214.893 261.97C214.636 261.371 214.722 260.543 215.465 260.357C216.119 260.339 216.756 260.568 217.249 260.999C218.614 262.024 219.843 263.218 220.904 264.554C221.092 264.86 221.38 265.092 221.718 265.211C221.99 265.23 222.26 265.16 222.489 265.011C225.044 263.584 226.144 260.314 226.387 257.259C226.629 254.204 226.287 251.034 227.043 248.064C227.131 247.561 227.364 247.094 227.714 246.722C227.797 246.635 227.897 246.566 228.007 246.518C228.118 246.471 228.237 246.446 228.357 246.446C228.477 246.446 228.596 246.471 228.706 246.518C228.817 246.566 228.917 246.635 228.999 246.722C229.096 246.868 229.16 247.034 229.185 247.208C229.442 251.013 229.385 254.833 229.014 258.629C229.014 259.158 229.213 259.929 229.685 259.757C230.066 255.737 230.729 251.749 231.669 247.822C231.855 247.036 232.283 246.066 233.097 246.137C233.911 246.208 234.11 247.479 234.011 248.393C233.596 252.462 232.954 256.502 232.312 260.528C232.94 260.314 233.24 259.557 233.439 258.886C234.088 256.78 234.622 254.64 235.038 252.476C235.158 251.784 235.359 251.108 235.638 250.463C236.295 249.035 236.809 249.107 237.237 249.378C238.051 249.878 237.437 253.961 236.823 256.16C236.209 258.358 235.31 260.443 234.796 262.698C235.595 262.499 236.052 261.613 236.395 260.8L238.451 256.002C238.679 255.503 239.065 254.903 239.564 255.032C240.064 255.16 240.164 255.845 240.135 256.374C240.038 257.967 239.666 259.532 239.036 260.999C238.651 261.927 238.194 262.813 237.808 263.726C236.209 267.624 235.852 272.293 233.011 275.277C232.542 275.686 232.142 276.168 231.826 276.704C231.369 277.675 231.626 278.932 231.112 279.874C230.864 280.298 230.495 280.64 230.053 280.856C229.611 281.071 229.116 281.152 228.628 281.087C227.661 280.932 226.734 280.588 225.901 280.074C225.167 279.777 224.53 279.283 224.059 278.646C223.417 277.532 223.774 276.09 223.545 274.791C223.229 273.567 222.633 272.433 221.804 271.479V271.479Z" fill="#BA6F4D"/>
<path d="M115.168 333.513C115.867 339.909 117.623 346.363 117.795 352.702C117.795 354.415 122.549 371.148 123.42 370.762C125.561 369.82 128.303 369.406 128.317 366.279C128.317 367.307 128.317 368.364 128.46 369.392C128.451 370.252 128.657 371.101 129.059 371.861C129.144 372.017 129.255 372.157 129.388 372.275C129.688 372.574 130.013 372.846 130.358 373.089L136.897 377.758C143.208 381.941 151.017 381.413 158.413 381.584L182.798 382.098C183.464 382.179 184.138 382.065 184.74 381.77C185.234 381.403 185.618 380.91 185.854 380.342C188.109 375.802 187.638 370.348 186.767 365.223C186.767 364.837 186.639 364.437 186.582 364.038C186.525 363.638 186.667 363.052 186.696 362.61C186.867 359.869 186.168 357.099 186.153 354.329C186.275 348.368 186.891 342.427 187.995 336.568C189.037 330.044 190.108 323.533 191.108 317.009C191.921 311.726 192.535 309.356 198.175 310.855C205.199 312.711 212.523 312.526 219.748 312.283C222.46 312.212 224.245 311.969 226.158 309.884C230.441 305.173 231.055 297.335 232.112 291.153C232.535 288.898 232.817 286.619 232.954 284.328C232.954 282.672 233.311 279.874 232.169 278.617C230.927 280.045 230.67 280.573 228.885 279.802C226.767 278.877 224.707 277.823 222.717 276.647C222.398 277.907 221.918 279.121 221.29 280.259C220.643 281.564 219.909 282.824 219.091 284.029C218.752 284.476 218.456 284.954 218.206 285.456C217.889 286.428 217.734 287.446 217.749 288.469C217.777 290.038 217.398 291.587 216.649 292.966C215.764 294.108 214.065 293.194 212.952 292.966L203.172 290.696C202.44 290.589 201.756 290.271 201.202 289.782C200.817 289.253 200.509 288.671 200.288 288.055C199.26 286.027 197.104 284.785 195.619 283.186C194.857 282.187 194.21 281.105 193.692 279.96C192.846 278.861 191.743 277.988 190.479 277.418C187.731 275.975 184.788 274.936 181.742 274.334C179.215 273.763 176.174 272.907 174.246 270.922C176.416 273.178 174.817 280.345 174.56 283.043C174.283 287.813 173.197 292.501 171.348 296.907C171.262 297.092 171.177 297.278 171.077 297.463C169.264 301.247 166.694 304.745 166.165 308.956C165.666 306.515 165.038 304.102 164.324 301.718C162.582 295.864 160.398 290.168 158.613 284.3C158.199 282.872 157.885 281.444 157.456 280.017C157.123 278.682 156.969 277.309 157 275.933C156.683 272.744 156.659 269.533 156.928 266.339C154.844 266.339 153.573 268.038 151.717 268.795C149.442 269.613 147.095 270.215 144.707 270.594C140.21 271.493 135.47 272.278 131.743 275.362C130.252 276.693 128.898 278.171 127.703 279.774C125.005 283.22 122.724 286.972 120.907 290.953C119.607 293.911 118.57 296.978 117.809 300.119C117.013 302.705 116.449 305.357 116.124 308.043C115.867 310.898 116.124 313.754 115.881 316.695C115.61 319.35 114.568 321.606 114.582 324.276C114.582 325.632 114.582 326.988 114.725 328.345C114.825 330.087 115.053 331.8 115.168 333.513ZM131.715 358.755C132.129 358.378 132.409 357.877 132.514 357.327C132.478 357.716 132.421 358.102 132.343 358.484C132.125 358.553 131.915 358.644 131.715 358.755V358.755ZM130.287 359.983C130.506 359.587 130.846 359.272 131.258 359.083C130.873 359.336 130.522 359.639 130.216 359.983H130.287ZM128.417 365.522C128.236 364.23 128.503 362.915 129.173 361.796C129.001 362.219 128.858 362.653 128.745 363.095C128.525 363.888 128.391 364.701 128.345 365.522H128.417ZM128.417 336.026C128.759 333.17 130.244 330.401 130.772 327.46C132 320.721 130.53 313.368 133.242 307.143C132.757 308.257 133.628 311.712 133.671 313.025C133.671 315.124 133.671 317.223 133.571 319.307C133.332 323.481 132.715 327.624 131.729 331.686C130.632 335.088 130.267 338.683 130.658 342.236C131.229 346.191 132.471 350.046 132.7 354.072C132.7 353.901 132.7 353.744 132.7 353.601C132.266 350.138 131.373 346.749 130.044 343.521C128.862 341.202 128.264 338.629 128.303 336.026H128.417Z" fill="#3C7AA5"/>
<path d="M164.381 270.165C163.296 269.437 162.382 268.481 161.254 267.81C159.84 266.987 158.192 266.66 156.571 266.882C155.539 268.024 154.753 269.366 154.262 270.825C153.77 272.284 153.585 273.828 153.716 275.362C154.004 278.422 154.72 281.425 155.843 284.285C158.099 290.948 160.359 297.611 162.625 304.273C163.312 306.778 164.428 309.145 165.923 311.269C170.977 301.818 175.917 291.981 177.03 281.287C177.402 277.661 177.116 273.492 174.318 271.151C174.132 270.975 173.907 270.848 173.661 270.779C173.275 270.744 172.888 270.824 172.547 271.008C171.215 271.514 169.782 271.702 168.364 271.555C166.946 271.409 165.582 270.933 164.381 270.165V270.165Z" fill="#D0CEC2"/>
<path d="M155.229 257.716C155.572 258.658 156.514 259.657 157.299 259.143L156.871 265.026C156.606 265.958 156.664 266.953 157.038 267.848C157.411 268.743 158.077 269.484 158.927 269.951C161.51 272.037 163.585 274.683 164.995 277.689C167.15 276.662 169.278 275.562 171.377 274.406C172.277 273.967 173.086 273.362 173.761 272.621C174.089 272.232 174.318 271.768 174.427 271.271C174.537 270.773 174.524 270.257 174.389 269.766C175.092 269.527 175.728 269.126 176.247 268.595C176.766 268.065 177.151 267.419 177.373 266.71C177.528 265.948 177.743 265.198 178.015 264.469C178.282 263.943 178.68 263.495 179.172 263.17C180.6 262.242 180.6 259.9 180.914 258.43C181.094 257.819 181.162 257.18 181.114 256.545C181.114 256.145 180.914 255.76 180.871 255.346C180.839 254.981 180.873 254.614 180.971 254.261C181.187 253.594 181.464 252.949 181.799 252.333C183.374 248.975 183.668 245.157 182.627 241.597C181.984 239.398 180.814 237.314 180.871 235.001L179.657 235.158C179.482 233.984 178.925 232.9 178.072 232.074C176.516 230.646 173.961 229.975 173.532 227.791C173.174 228.45 172.689 229.032 172.105 229.504C171.809 229.723 171.451 229.841 171.084 229.841C170.716 229.841 170.358 229.723 170.063 229.504C169.937 229.355 169.781 229.234 169.606 229.147C169.452 229.105 169.289 229.105 169.135 229.147C167.813 229.546 166.611 230.267 165.637 231.246L164.538 230.232C162.796 230.789 162.282 233.088 161.083 234.515C160.155 235.629 158.827 236.214 157.885 237.371C156.762 238.987 156.119 240.887 156.029 242.853L155.029 249.549C154.958 250.12 154.872 250.677 154.801 251.248C154.446 253.408 154.592 255.621 155.229 257.716V257.716Z" fill="#BA6F4D"/>
<path d="M154.829 251.205C155.174 251.057 155.508 250.885 155.829 250.691C156.289 250.533 156.789 250.532 157.249 250.69C157.71 250.848 158.104 251.155 158.37 251.562C158.94 252.427 159.329 253.398 159.512 254.418C160.32 251.019 161.558 247.737 163.196 244.652C163.983 242.868 165.254 241.34 166.865 240.24C169.264 238.898 172.19 239.569 174.832 240.24L177.973 241.083C178.852 241.218 179.659 241.652 180.257 242.311C180.729 243.132 180.933 244.08 180.842 245.023L180.928 254.246C181.144 253.58 181.421 252.935 181.756 252.319C183.331 248.961 183.626 245.143 182.584 241.583C181.942 239.384 180.771 237.299 180.828 234.986L179.614 235.144C179.439 233.97 178.882 232.886 178.03 232.06C176.473 230.632 173.918 229.961 173.49 227.777C173.131 228.436 172.646 229.018 172.062 229.49C171.767 229.709 171.409 229.827 171.041 229.827C170.673 229.827 170.315 229.709 170.02 229.49C169.894 229.341 169.738 229.219 169.563 229.133C169.409 229.09 169.246 229.09 169.092 229.133C167.77 229.532 166.569 230.253 165.594 231.232L164.495 230.218C162.753 230.775 162.239 233.073 161.04 234.501C160.112 235.615 158.784 236.2 157.842 237.356C156.719 238.973 156.076 240.873 155.986 242.839L155.029 249.549C155.029 250.077 154.901 250.634 154.829 251.205Z" fill="#1D3257"/>
<path d="M504.177 283.329C503.491 284.663 502.539 285.843 501.38 286.795C500.221 287.748 498.88 288.453 497.438 288.868C495.996 289.283 494.485 289.398 492.997 289.206C491.509 289.015 490.076 288.521 488.786 287.755C487.944 287.073 487.006 286.52 486.002 286.113C485.129 285.934 484.235 285.876 483.346 285.942C474.166 285.942 467.399 277.547 462.759 269.623C455.697 257.57 450.117 244.708 446.14 231.317C444.912 232.858 443.153 233.886 441.207 234.2C439.262 234.514 437.269 234.092 435.618 233.016C435.936 237.249 436.899 241.409 438.473 245.352L443.999 261.785C447.368 271.779 450.795 281.973 456.377 290.996C458.875 295.036 461.845 298.905 463.301 303.445C464.263 307.001 464.743 310.67 464.729 314.353L466.785 362.239C480.234 360.849 493.721 359.973 507.246 359.612C512.243 359.483 517.44 359.455 521.938 361.625C519.996 355.5 522.766 349.018 523.736 342.665C524.112 339.715 524.303 336.744 524.308 333.77C524.622 319.935 525.478 305.401 532.874 293.68C537.657 286.07 544.881 280.216 549.707 272.621C556.388 262.142 558.059 249.092 564.726 238.599C561.242 238.342 557.031 237.042 556.417 233.602C552.42 236.308 549.37 240.197 547.693 244.723C547.324 246.063 546.725 247.329 545.923 248.464C544.834 249.445 543.653 250.32 542.397 251.077C539.541 253.304 538.542 257.116 536.9 260.371C535.205 263.499 533.055 266.357 530.518 268.852C523.439 276.177 515.027 282.084 505.733 286.256L504.177 283.329Z" fill="#ED1A3B"/>
<path d="M433.434 212.057C433.348 210.287 433.277 208.517 433.191 206.746C433.166 206.536 433.201 206.324 433.291 206.132C433.358 206.056 433.44 205.996 433.533 205.954C433.625 205.912 433.725 205.891 433.826 205.891C433.928 205.891 434.028 205.912 434.12 205.954C434.212 205.996 434.295 206.056 434.362 206.132C434.602 206.468 434.745 206.863 434.776 207.275C434.961 208.588 435.218 209.887 435.532 211.186C435.602 211.681 435.746 212.163 435.961 212.614C435.961 212.714 437.046 213.542 437.117 213.228C437.96 209.33 436.617 205.019 435.832 201.207C435.832 200.607 436.203 200.05 436.86 200.222C437.517 200.393 437.717 201.435 437.86 201.992C438.529 204.162 438.965 206.397 439.159 208.659C439.41 209.711 439.506 210.793 439.444 211.872C439.444 212.257 439.444 212.771 439.758 212.9C440.101 210.573 439.958 208.274 440.087 205.947C440.215 203.62 440.201 201.764 440.429 199.322C440.587 197.723 442.343 196.895 442.628 198.665C443.351 203.207 443.514 207.819 443.114 212.4C443.304 212.214 443.455 211.992 443.558 211.747C443.661 211.502 443.714 211.238 443.713 210.972C443.9 207.836 444.465 204.735 445.398 201.735C445.498 201.356 445.718 201.02 446.026 200.778C448.196 199.351 447.125 205.49 446.854 207.046C446.369 209.902 445.655 213.328 446.255 216.084C447.079 215.341 447.817 214.508 448.453 213.599C449.205 212.599 450.271 211.88 451.48 211.558C452.579 211.429 454.021 212.671 453.45 213.671C451.48 213.485 450.052 215.527 449.453 217.426C448.853 219.324 448.51 221.48 446.94 222.694C446.297 223.194 445.512 223.508 445.055 224.193C444.788 224.728 444.66 225.323 444.684 225.92C444.598 228.133 444.556 230.375 444.584 232.602C442.209 233.929 439.422 234.316 436.775 233.687C437.317 233.816 436.617 229.561 436.589 229.304C436.633 227.861 436.469 226.418 436.103 225.021C435.518 223.593 434.305 222.465 433.933 220.966C433.819 220.46 433.762 219.943 433.762 219.424C433.576 216.969 433.434 214.513 433.434 212.057Z" fill="#F1B488"/>
<path d="M551.662 221.837C551.191 221.166 550.577 220.595 550.121 219.91C549.664 219.225 549.192 218.282 549.764 217.783C549.867 217.695 549.988 217.631 550.119 217.594C550.249 217.557 550.386 217.548 550.52 217.568C550.786 217.619 551.045 217.7 551.291 217.811C551.92 218.061 552.519 218.382 553.076 218.768C554.261 219.639 554.504 221.038 555.303 222.151C555.493 222.448 555.773 222.675 556.103 222.798C556.432 222.922 556.793 222.935 557.131 222.837C557.41 222.646 557.642 222.394 557.808 222.099C557.973 221.804 558.069 221.475 558.087 221.138C558.901 217.283 559.172 213.271 560.5 209.559C560.686 209.045 562.37 204.062 563.27 206.475C563.363 206.831 563.363 207.204 563.27 207.56C562.827 210.416 561.614 213.271 561.714 216.126C561.716 216.355 561.754 216.581 561.828 216.797C562.031 217.088 562.335 217.293 562.68 217.373C563.026 217.452 563.389 217.399 563.698 217.226C564.869 216.526 565.311 214.57 565.825 213.414C566.518 211.845 567.295 210.315 568.153 208.831C568.386 208.327 568.791 207.922 569.295 207.689C570.994 207.146 570.408 209.83 570.18 210.544C569.723 211.915 569.223 213.271 568.681 214.613C568.028 215.793 567.57 217.071 567.324 218.396C567.91 218.525 568.381 217.94 568.681 217.411L571.679 212.386C571.992 211.734 572.488 211.189 573.107 210.815C573.259 210.729 573.428 210.674 573.603 210.655C573.777 210.635 573.954 210.651 574.122 210.702C574.29 210.753 574.446 210.837 574.581 210.95C574.716 211.062 574.826 211.201 574.906 211.358C574.95 211.651 574.925 211.951 574.834 212.234C574.742 212.516 574.586 212.774 574.377 212.985L569.809 219.282C569.528 219.611 569.319 219.995 569.195 220.41C568.852 221.937 570.423 221.68 571.222 221.166C572.535 220.279 573.803 219.326 575.02 218.311C575.891 217.64 577.104 217.183 577.019 218.711C576.848 219.934 576.233 221.052 575.291 221.852C574.1 222.797 572.978 223.828 571.936 224.935C569.609 227.934 570.066 232.831 566.882 234.929C566.257 235.212 565.695 235.615 565.226 236.114C565.015 236.509 564.825 236.914 564.655 237.328C563.827 238.756 561.685 238.756 560.229 237.928C558.772 237.099 557.63 235.857 556.117 235.215C556.317 234.458 556.517 233.702 556.731 232.945C554.689 232.359 553.69 230.089 553.319 227.976C552.947 225.863 552.89 223.565 551.662 221.837Z" fill="#F1B488"/>
<path d="M467.484 361.439C487.572 358.826 507.76 357.227 519.796 360.568C524.622 369.463 521.68 380.428 522.837 390.479C523.479 396.19 525.435 401.544 526.106 407.183C526.706 412.094 526.306 417.063 526.663 422.003C527.206 429.284 529.404 436.437 529.304 443.733C529.219 449.915 527.506 456.182 528.919 462.193C529.676 465.377 531.289 468.346 531.774 471.587C532.86 479.04 527.777 486.935 530.704 493.874C524.837 493.493 518.957 494.37 513.457 496.444C509.914 482.21 507.777 467.664 507.075 453.013C506.999 449.488 506.723 445.97 506.247 442.476C505.217 437.397 503.785 432.408 501.964 427.557C498.84 418.177 496.453 408.568 494.825 398.817C491.199 405.299 490.899 413.094 491.142 420.518C491.492 431.798 492.834 443.025 495.154 454.069C496.838 462.122 498.98 470.417 499.951 478.712C500.265 481.567 501.564 489.205 501.564 489.205C499.894 490.562 494.739 491.004 492.684 491.59C489.924 492.274 487.056 492.405 484.246 491.975C483.099 491.986 481.982 491.609 481.076 490.904C480.327 489.973 479.914 488.816 479.905 487.621L477.25 464.777C476.984 461.796 476.507 458.838 475.822 455.925C475.094 453.156 473.995 450.514 473.124 447.802C468.212 432.568 470.497 416.092 469.555 400.116C468.784 387.181 465.9 374.274 467.484 361.439Z" fill="#BCBAB1"/>
<path d="M513.528 503.682C512.615 502.512 513.228 500.827 513.871 499.471C514.242 498.728 514.599 497.971 514.956 497.229C515.139 496.805 515.369 496.403 515.641 496.03C516.272 495.338 517.068 494.817 517.954 494.516C521.411 493.105 525.173 492.613 528.876 493.089C529.137 493.1 529.391 493.174 529.619 493.303C529.948 493.568 530.172 493.943 530.247 494.359C530.746 496.506 530.948 498.711 530.846 500.913C530.871 501.327 530.823 501.743 530.704 502.14C530.449 502.669 530.072 503.129 529.604 503.482C528.574 504.537 527.313 505.339 525.921 505.824C523.265 506.538 520.567 504.896 517.826 504.725C516.241 504.667 514.471 504.91 513.528 503.682Z" fill="#20315B"/>
<path d="M473.152 501.298C471.289 501.541 469.398 501.165 467.77 500.227C467.381 500.012 467.059 499.693 466.841 499.305C466.623 498.918 466.517 498.477 466.535 498.033C466.553 497.589 466.694 497.158 466.942 496.789C467.19 496.42 467.536 496.128 467.941 495.944C468.744 495.497 469.604 495.16 470.497 494.945C473.434 494.069 476.215 492.735 478.735 490.99C479.068 490.711 479.458 490.506 479.877 490.39C480.409 490.34 480.945 490.429 481.433 490.647C487.52 492.635 494.124 492.32 499.993 489.762C500.772 492.199 501.006 494.777 500.679 497.315C500.636 497.61 500.501 497.885 500.293 498.1C500.05 498.251 499.766 498.326 499.48 498.314L492.341 498.642C491.524 498.727 490.699 498.673 489.9 498.485C489.487 498.326 489.055 498.22 488.615 498.171C488.073 498.226 487.554 498.413 487.101 498.714C482.889 501.027 477.921 501.184 473.152 501.298Z" fill="#20315B"/>
<path d="M483.304 262.927C483.418 264.883 484.075 266.753 484.246 268.638C484.246 268.709 484.246 268.809 484.246 268.88C484.133 270.547 484.422 272.217 485.088 273.749C485.618 274.425 486.095 275.141 486.516 275.89C486.693 276.41 486.784 276.955 486.787 277.504L487.216 283.771C487.206 284.717 487.421 285.652 487.844 286.498C488.635 287.552 489.8 288.262 491.099 288.483C493.892 289.253 496.857 289.113 499.565 288.083C500.914 287.557 502.127 286.735 503.116 285.678C504.104 284.62 504.843 283.354 505.276 281.973C505.617 280.572 505.742 279.128 505.647 277.689C505.599 277.154 505.637 276.614 505.762 276.09C505.941 275.587 506.18 275.108 506.475 274.663C507.526 272.766 508.163 270.669 508.346 268.509C508.513 266.658 508.579 264.799 508.546 262.941C508.623 261.399 508.469 259.854 508.089 258.358C507.402 256.374 506.127 254.646 504.434 253.404C503.372 252.585 502.205 251.913 500.964 251.405C499.014 250.614 496.909 250.281 494.81 250.432C492.711 250.583 490.674 251.214 488.857 252.276C487.069 253.398 485.611 254.976 484.635 256.848C483.659 258.72 483.199 260.818 483.304 262.927V262.927Z" fill="#F1B488"/>
<path d="M483.304 262.927C483.418 264.883 484.075 266.753 484.246 268.638C484.246 268.709 484.246 268.809 484.246 268.88H484.346C484.571 268.815 484.808 268.798 485.041 268.831C485.273 268.863 485.496 268.945 485.695 269.071C485.893 269.196 486.063 269.363 486.192 269.559C486.321 269.755 486.407 269.976 486.445 270.208C487.144 268.78 486.345 266.982 486.901 265.482C487.144 264.797 487.672 264.226 487.958 263.555C488.295 262.324 488.397 261.04 488.258 259.772C488.198 259.141 488.333 258.508 488.644 257.956C488.956 257.405 489.429 256.962 490 256.688C490.757 256.543 491.54 256.638 492.241 256.959L494.24 257.644C495.468 256.145 497.723 256.217 499.651 256.402C501.179 256.574 502.992 257.002 503.577 258.444C503.784 259.162 503.857 259.912 503.791 260.657C503.92 263.841 506.061 266.739 505.819 269.894C505.997 269.269 506.367 268.715 506.875 268.309C507.104 268.179 507.372 268.131 507.632 268.175C507.893 268.22 508.13 268.353 508.303 268.552C508.47 266.701 508.536 264.842 508.503 262.984C508.58 261.442 508.426 259.897 508.046 258.401C507.359 256.417 506.084 254.689 504.391 253.447C503.329 252.628 502.162 251.956 500.922 251.448C498.971 250.657 496.866 250.324 494.767 250.475C492.668 250.626 490.631 251.257 488.815 252.319C487.04 253.442 485.596 255.016 484.627 256.879C483.659 258.743 483.203 260.829 483.304 262.927V262.927Z" fill="#20315B"/>
<path d="M363.761 392.321C363.429 394.489 362.641 396.562 361.448 398.403C360.478 400.087 358.864 401.943 356.965 401.501C354.61 400.958 354.453 397.675 353.325 395.49C352.972 394.703 352.342 394.072 351.554 393.72C351.101 393.54 350.606 393.49 350.127 393.577C348.543 394.064 347.17 395.07 346.229 396.432C336.235 408.582 328.311 423.416 314.334 430.569C316.647 435.281 316.704 440.749 316.718 446.003C316.718 451.014 316.718 455.997 316.718 461.022C316.718 467.061 317.175 474.043 322.043 477.627C319.955 479.547 317.376 480.853 314.592 481.399C311.808 481.946 308.927 481.713 306.267 480.725C306.01 468.546 301.484 456.753 301.227 444.561C301.127 439.878 301.656 435.166 301.127 430.512C300.708 427.532 300.088 424.585 299.271 421.689C297.087 412.965 295.231 404.142 293.732 395.276C292.147 385.882 290.962 376.216 292.904 366.879C293.432 364.337 294.203 361.839 294.731 359.283C295.361 356.246 295.658 353.148 295.616 350.046C308.723 353.601 322.486 346.577 336.007 347.733C338.02 354.258 340.018 360.968 339.419 367.721C338.763 372.565 337.446 377.297 335.507 381.784L329.796 396.818C331.893 393.821 334.514 391.229 337.534 389.165C340.204 387.352 343.245 385.853 345.101 383.283C345.23 383.083 345.372 382.898 345.487 382.698C346.013 381.733 346.49 380.742 346.914 379.728C347.857 377.772 348.899 375.973 350.912 375.773C352.925 375.574 354.767 377.458 355.723 379.357C356.68 381.256 357.351 383.426 359.007 384.754C359.807 385.396 360.806 385.796 361.605 386.453C362.414 387.182 363.033 388.098 363.408 389.12C363.784 390.143 363.905 391.241 363.761 392.321V392.321Z" fill="#4077A0"/>
<path d="M323.285 482.681C322.691 484.282 321.651 485.679 320.287 486.707C318.93 487.733 317.724 488.944 316.704 490.305C315.276 492.618 315.19 495.573 314.034 498.071C312.292 501.812 308.323 503.954 304.497 505.51C303.069 506.109 300.97 506.481 300.128 505.124C299.471 504.025 300.128 502.626 300.956 501.641C302.526 499.742 304.696 498.2 305.767 496.03C305.914 495.75 306.038 495.459 306.138 495.159C306.472 493.903 306.606 492.602 306.538 491.304C306.538 488.249 306.538 485.193 306.538 482.138C306.519 481.859 306.568 481.58 306.681 481.324C307.009 480.753 307.823 480.782 308.466 480.853C311.156 481.167 313.88 480.983 316.504 480.311C318.288 479.857 320.009 479.186 321.629 478.312C322.368 478.736 322.937 479.403 323.238 480.2C323.54 480.997 323.557 481.873 323.285 482.681Z" fill="#ECB69B"/>
<path d="M323.285 482.681C322.691 484.282 321.651 485.679 320.287 486.707C318.93 487.733 317.724 488.944 316.704 490.305C315.276 492.618 315.19 495.573 314.034 498.071C312.292 501.812 308.323 503.954 304.497 505.51C303.069 506.109 300.97 506.481 300.128 505.124C299.471 504.025 300.128 502.626 300.956 501.641C302.526 499.742 304.696 498.2 305.767 496.03H306.124C307.162 496.276 308.234 496.339 309.294 496.215C311.764 495.659 312.692 492.675 313.106 490.19C313.375 487.705 313.955 485.264 314.833 482.923C315.246 481.958 315.804 481.063 316.489 480.268C318.273 479.814 319.995 479.143 321.615 478.269C322.365 478.693 322.944 479.366 323.249 480.172C323.554 480.978 323.567 481.866 323.285 482.681V482.681Z" fill="#1D3257"/>
<path d="M330.552 396.275C330.109 400.241 329.109 404.125 327.583 407.811C325.941 411.766 323.685 415.507 322.643 419.661C322.764 418.424 323.038 417.206 323.457 416.035L328.125 400.887C328.498 399.157 329.338 397.562 330.552 396.275V396.275Z" fill="#346B8C"/>
<path d="M304.939 402.172C305.491 399.379 306.216 396.623 307.109 393.92C309.079 387.234 310.394 380.372 311.036 373.432L307.709 374.303C307.623 389.351 302.698 399.602 303.169 414.65C303.299 417.619 303.624 420.576 304.14 423.502C304.64 426.429 304.554 428.485 307.638 429.855C309.465 430.669 312.849 431.554 314.305 430.569C313.331 430.851 312.292 430.8 311.35 430.426L309.508 429.727C308.409 429.313 306.881 429.213 306.41 428.142C301.841 417.877 304.497 404.813 304.939 402.172Z" fill="#346B8C"/>
<path d="M334.564 267.496C333.822 268.052 332.823 268.024 332.166 268.581C331.991 268.745 331.846 268.938 331.737 269.152C331.438 269.651 331.166 270.308 330.867 270.694C330.567 271.079 330.238 271.422 329.924 271.764C328.887 272.769 327.78 273.699 326.612 274.548C325.313 275.548 323.757 276.604 322.186 276.219C321.372 275.953 320.633 275.498 320.03 274.891L317.032 272.321L316.889 272.207C316.319 271.743 315.784 271.238 315.29 270.694C314.762 270.146 314.354 269.494 314.091 268.78C313.831 267.852 313.73 266.887 313.791 265.925C313.791 264.383 313.877 262.827 314.034 261.271C314.362 257.973 315.362 254.475 317.989 252.447C318.943 251.748 320.032 251.253 321.187 250.995C322.342 250.737 323.537 250.721 324.699 250.948C327.035 251.403 329.18 252.553 330.852 254.246C331.658 254.995 332.313 255.892 332.78 256.888C333.679 259.001 333.351 261.356 333.251 263.555C333.369 263.154 333.574 262.783 333.851 262.47C333.982 262.336 334.152 262.248 334.337 262.217C334.521 262.186 334.711 262.215 334.878 262.299C335.038 262.438 335.161 262.615 335.235 262.813C335.536 263.585 335.633 264.422 335.515 265.242C335.398 266.063 335.07 266.839 334.564 267.496V267.496Z" fill="#ECB69B"/>
<path d="M349.313 268.438C348.916 269.264 348.335 269.988 347.615 270.555C346.895 271.122 346.054 271.516 345.158 271.707C343.362 272.062 341.523 272.139 339.704 271.936C340.564 272.532 341.535 272.95 342.56 273.164C340.732 273.939 338.75 274.281 336.768 274.162C334.787 274.044 332.859 273.467 331.138 272.478C330.724 272.207 330.289 271.969 329.839 271.764C330.153 271.422 330.481 271.065 330.781 270.694C331.081 270.322 331.352 269.651 331.652 269.152C331.76 268.938 331.905 268.745 332.08 268.581C332.737 268.024 333.736 268.052 334.479 267.496C334.992 266.834 335.324 266.051 335.442 265.222C335.559 264.393 335.459 263.548 335.15 262.77C335.075 262.572 334.952 262.395 334.793 262.256C334.625 262.172 334.436 262.143 334.251 262.174C334.066 262.205 333.896 262.294 333.765 262.427C333.488 262.741 333.283 263.111 333.165 263.512C333.265 261.314 333.594 258.958 332.694 256.845C332.227 255.849 331.573 254.952 330.767 254.204C329.094 252.51 326.95 251.36 324.613 250.906C323.452 250.678 322.256 250.694 321.101 250.952C319.946 251.21 318.857 251.705 317.903 252.405C315.276 254.432 314.277 257.93 313.948 261.228C313.791 262.784 313.748 264.34 313.705 265.882C313.644 266.844 313.745 267.81 314.005 268.738C314.268 269.452 314.676 270.103 315.205 270.651C314.672 270.794 314.151 270.98 313.648 271.208C311.093 272.136 308.28 271.536 305.639 270.936C304.854 270.765 303.869 270.294 303.997 269.509C304.334 269.431 304.652 269.285 304.93 269.078C305.207 268.872 305.439 268.61 305.61 268.309C304.683 268.448 303.738 268.23 302.965 267.7C302.192 267.171 301.647 266.368 301.441 265.454C303.281 264.862 304.818 263.577 305.725 261.87C308.58 257.245 309.194 251.262 312.863 247.265C314.459 245.626 316.414 244.379 318.574 243.624C320.11 242.976 321.786 242.735 323.442 242.925C324.293 243.103 325.132 243.332 325.955 243.61C326.769 243.838 327.597 244.024 328.397 244.238C332.423 245.381 335.945 247.851 338.391 251.248C341.831 256.031 343.045 262.527 347.771 266.054C347.07 266.4 346.305 266.6 345.524 266.639C344.743 266.678 343.963 266.557 343.231 266.282C344.921 267.729 347.088 268.498 349.313 268.438V268.438Z" fill="#84211A"/>
<path d="M363.761 392.321C363.429 394.489 362.641 396.562 361.448 398.403C360.477 400.087 358.864 401.943 356.965 401.501C354.609 400.958 354.452 397.675 353.325 395.49C352.972 394.703 352.342 394.072 351.554 393.72C351.101 393.54 350.606 393.49 350.126 393.577L349.484 391.321C348.656 388.337 347.471 384.996 345.129 383.255C345.258 383.055 345.401 382.869 345.515 382.669C346.042 381.705 346.518 380.713 346.943 379.7C347.885 377.744 348.927 375.945 350.94 375.745C352.953 375.545 354.795 377.43 355.752 379.328C356.708 381.227 357.379 383.397 359.035 384.725C359.835 385.368 360.834 385.767 361.634 386.424C362.442 387.16 363.058 388.081 363.428 389.109C363.799 390.136 363.913 391.239 363.761 392.321V392.321Z" fill="#ECB69B"/>
<path d="M363.761 392.321C363.429 394.489 362.641 396.562 361.448 398.403C360.477 400.087 358.864 401.943 356.965 401.501C354.609 400.958 354.452 397.675 353.325 395.49C355.223 394.919 357.907 395.647 359.464 394.262C359.976 393.714 360.31 393.024 360.422 392.282C360.534 391.541 360.419 390.783 360.092 390.108C359.422 388.778 358.478 387.605 357.322 386.667L352.953 382.555C351.283 380.985 349.027 379.328 346.943 379.7C347.885 377.744 348.927 375.945 350.94 375.745C352.953 375.545 354.795 377.43 355.752 379.328C356.708 381.227 357.379 383.397 359.035 384.725C359.835 385.368 360.834 385.767 361.634 386.424C362.442 387.16 363.058 388.081 363.428 389.109C363.799 390.136 363.913 391.239 363.761 392.321Z" fill="#1D3257"/>
<path d="M308.894 278.246C308.58 277.118 307.209 276.819 306.039 276.39C303.314 275.189 300.987 273.238 299.328 270.765C289.709 258.25 285.034 242.633 286.193 226.891C286.198 226.049 286.409 225.221 286.807 224.479C287.699 223.468 288.926 222.813 290.262 222.637V222.637C291.144 222.448 292.012 222.2 292.861 221.894C293.775 221.566 294.06 220.895 294.774 220.252C295.731 219.41 297.158 219.396 298.329 218.825C298.743 218.657 299.096 218.369 299.343 217.997C299.468 217.814 299.535 217.597 299.535 217.376C299.535 217.154 299.468 216.938 299.343 216.755C299.219 216.636 299.074 216.544 298.915 216.483C298.755 216.421 298.585 216.393 298.415 216.398C296.987 216.398 295.659 217.483 294.131 217.483C293.915 217.505 293.697 217.468 293.501 217.375C293.304 217.282 293.137 217.136 293.018 216.954C292.889 216.204 292.953 215.432 293.203 214.713C293.503 213.836 293.896 212.994 294.374 212.2C295.088 210.887 296.23 207.917 295.002 207.917L291.69 212.743C291.376 213.214 290.933 213.742 290.362 213.685C290.676 210.53 294.831 205.79 293.218 204.79C292.39 204.605 291.79 205.49 291.347 206.218L288.692 211.244C288.406 211.772 287.778 212.386 287.264 212C288.692 210.002 290.619 205.347 289.791 205.119C288.963 204.89 288.007 206.618 287.478 207.674C286.649 209.412 285.695 211.087 284.623 212.686C284.38 213.043 283.895 213.442 283.581 213.142C284.309 211.601 285.094 208.203 284.323 208.188C283.781 208.188 283.481 208.802 283.295 209.302C282.467 211.643 281.268 215.413 280.44 217.74C280.191 218.458 279.99 219.193 279.84 219.938C277.813 229.761 278.098 239.926 278.412 249.92C278.318 253.877 278.853 257.824 279.997 261.613C280.914 263.938 282.067 266.163 283.438 268.252L293.432 284.728C293.956 285.818 294.797 286.723 295.845 287.326C297.063 287.731 298.389 287.66 299.557 287.127C303.122 285.861 306.175 283.464 308.252 280.302C308.726 279.727 308.957 278.989 308.894 278.246V278.246Z" fill="#ECB69B"/>
<path d="M373.812 210.444C372.998 210.216 372.513 211.315 372.385 212.157L371.956 215.441C371.842 216.298 371.271 217.44 370.529 217.083C370.329 214.713 370.043 210.958 369.843 208.602C369.772 207.617 368.915 206.989 368.415 207.946C368.156 210.521 368.089 213.112 368.216 215.698C368.088 215.804 367.939 215.883 367.78 215.93C367.62 215.977 367.453 215.99 367.288 215.969C366.631 213.114 365.846 210.258 364.932 207.403C364.661 206.603 363.89 205.633 363.219 206.132C362.99 206.304 363.219 208.145 363.219 208.46C363.219 209.345 363.376 210.216 363.518 211.101C363.618 211.7 364.818 215.384 363.69 215.227C363.402 215.131 363.152 214.946 362.976 214.699L360.12 211.344C359.678 210.815 358.579 209.202 357.736 209.602C356.594 210.144 358.079 212.186 358.464 212.757C359.335 213.835 360.118 214.981 360.806 216.183C361.177 217.405 361.355 218.676 361.334 219.953C360.126 220.087 358.904 219.863 357.822 219.31C356.608 218.782 355.395 218.354 354.167 217.882C353.753 217.711 353.225 217.54 352.868 217.882C352.7 218.051 352.598 218.274 352.582 218.511C352.564 218.81 352.607 219.109 352.708 219.391C352.808 219.673 352.965 219.932 353.167 220.153C353.59 220.591 354.07 220.971 354.595 221.28L357.322 223.079C357.945 223.458 358.632 223.72 359.349 223.85L359.849 224.036C360.991 225.249 362.633 226.449 363.261 227.091V227.163C363.312 227.203 363.355 227.251 363.39 227.305C364.818 229.39 364.461 232.202 363.99 234.701L362.562 242.296C361.761 247.935 360.255 253.451 358.079 258.715C353.91 267.681 346.129 274.42 340.232 282.272C338.148 285.056 336.221 288.297 336.492 291.752C336.763 295.207 340.261 298.548 343.545 297.378C344.85 296.784 345.988 295.876 346.857 294.736C352.013 289.247 356.865 283.48 361.391 277.461C363.282 275.003 364.855 272.317 366.074 269.466C366.923 267.198 367.559 264.856 367.973 262.47C369.872 252.833 370.828 243.039 371.871 233.273L372.128 230.746C372.427 227.891 372.713 225.035 372.741 222.094C372.741 221.937 372.741 221.78 372.741 221.623H372.827C373.17 217.825 374.555 210.672 373.812 210.444Z" fill="#ECB69B"/>
<path d="M302.312 280.316C302.947 279.425 303.483 278.468 303.911 277.461C304.225 276.704 304.668 275.776 305.496 275.776C305.826 275.805 306.145 275.912 306.424 276.09C312.349 279.317 318.76 282.943 325.77 281.516C328.325 280.987 330.781 279.96 333.379 279.588C335.175 279.518 336.974 279.628 338.748 279.917C340.718 280.031 342.088 278.617 343.73 277.818C344.373 278.603 344.673 279.902 345.258 280.816C345.884 281.801 346.632 282.703 347.485 283.5C349.231 285.158 351.375 286.338 353.71 286.927C347.999 295.95 338.719 304.273 337.691 315.481C337.134 321.506 337.577 327.731 337.206 333.799C337.091 335.755 338.476 350.332 337.12 350.931C327.038 355.034 316.22 357.017 305.339 356.756C302.156 356.784 299.009 356.076 296.145 354.686C295.747 354.492 295.4 354.209 295.131 353.858C294.865 353.373 294.732 352.826 294.745 352.273C294.246 341.337 300.742 331.015 300.456 320.064C300.342 315.524 299.243 310.998 298.7 306.486C298.215 302.517 298.386 298.677 296.858 294.893C295.773 292.181 294.003 289.183 293.875 286.213C297.27 285.251 300.242 283.174 302.312 280.316Z" fill="#D0CEC2"/>
<path d="M330.638 273.421C330.524 274.491 330.081 280.359 330.081 280.359C329.075 280.704 328.093 281.114 327.14 281.587C325.509 282.758 324.006 284.098 322.657 285.585C320.559 287.869 319.245 290.839 316.875 292.838C315.554 294.206 314.122 295.462 312.592 296.592C312.278 296.107 312.935 294.808 313.149 294.279C313.463 293.466 313.834 292.695 314.205 291.895C315.019 290.111 315.404 288.24 316.133 286.441C316.859 284.481 317.339 282.438 317.56 280.359C317.924 277.989 317.87 275.573 317.403 273.221C317.403 273.221 317.189 272.25 317.175 272.25L320.173 274.82C320.776 275.427 321.515 275.882 322.329 276.148C323.914 276.533 325.456 275.477 326.755 274.477C328.337 273.375 329.776 272.08 331.038 270.622C331.338 270.237 331.609 269.58 331.909 269.08C331.333 270.478 330.907 271.933 330.638 273.421V273.421Z" fill="#E0AD96"/>
</svg>
